<svg id="Capa_1" data-name="Capa 1" xmlns="http://www.w3.org/2000/svg" viewBox="0 0 261.1661 45.1284"><defs><style>.cls-1{fill:#fff;}</style></defs><path class="cls-1" d="M315.9426,203.789,307.19,215.0226H268.5934V171.3314h13.5187V203.789Z" transform="translate(-268.5934 -170.6123)"/><path class="cls-1" d="M334.1623,215.0226H320.6436V171.3314h13.5187Z" transform="translate(-268.5934 -170.6123)"/><path class="cls-1" d="M386.8662,215.7407a7.0392,7.0392,0,0,1-5.42-2.3505L354.67,189.356v25.6666H342.3916V178.7762a10.1069,10.1069,0,0,1,.62-3.7224,7.1282,7.1282,0,0,1,1.6324-2.5466,6.2359,6.2359,0,0,1,2.3516-1.4373,8.5578,8.5578,0,0,1,2.7754-.4576,7.9238,7.9238,0,0,1,2.5139.4249,8.6446,8.6446,0,0,1,2.9062,1.9266l26.778,24.0331V171.3314H394.311v36.181a10.1069,10.1069,0,0,1-.62,3.7224,7.47,7.47,0,0,1-1.6324,2.5793,6.01,6.01,0,0,1-2.3832,1.47A8.8656,8.8656,0,0,1,386.8662,215.7407Z" transform="translate(-268.5934 -170.6123)"/><path class="cls-1" d="M459.032,195.953q0,19.7877-27.2335,19.7877a64.6149,64.6149,0,0,1-13.5841-1.24,26.9983,26.9983,0,0,1-9.3724-3.7235,15.12,15.12,0,0,1-5.42-6.1709,20.1945,20.1945,0,0,1-1.7315-8.6532V171.3314h13.4533V195.953a10.9178,10.9178,0,0,0,.6538,4.0482,5.294,5.294,0,0,0,2.4486,2.6457,14.2382,14.2382,0,0,0,5.0616,1.4363,68.2787,68.2787,0,0,0,8.4908.4249,38.7269,38.7269,0,0,0,6.5295-.4576,10.8787,10.8787,0,0,0,4.18-1.5016,5.941,5.941,0,0,0,2.2545-2.6774,10.1249,10.1249,0,0,0,.6855-3.9185V171.3314h13.584Z" transform="translate(-268.5934 -170.6123)"/><path class="cls-1" d="M528.7135,171.3314l-13.78,12.6045q-2.2872,2.091-3.8531,3.4935-1.566,1.4063-2.6763,2.3516-1.1136.9474-1.8623,1.567c-.5019.4144-.9469.774-1.3392,1.0777.3923.2615.8267.5884,1.3076.98q.7149.5884,1.8939,1.6651,1.1736,1.0786,2.9378,2.7111,1.762,1.6323,4.4416,4.1136L529.76,215.0226H510.6878L495.7983,200.59l-15.3472,14.433H463.6655l14.2379-13.1275q2.48-2.2841,4.18-3.8205,1.6989-1.5327,2.8092-2.5139c.7382-.6527,1.36-1.1758,1.86-1.567s.9469-.74,1.3392-1.045q-.5884-.4572-1.3055-1.0123-.7212-.5553-1.8285-1.5681-1.1136-1.0107-2.8092-2.5466-1.6987-1.5343-4.2454-3.9512l-13.3879-12.5391h18.7426l13.911,13.5841,14.0418-13.5841Z" transform="translate(-268.5934 -170.6123)"/></svg>