<svg id="Capa_1" data-name="Capa 1" xmlns="http://www.w3.org/2000/svg" viewBox="0 0 350.668 28.84"><defs><style>.cls-1{fill:#fff;}</style></defs><path class="cls-1" d="M54.911,204.055q-.918-1.627-1.586-2.859t-1.21-2.212q-.543-.981-.939-1.774t-.772-1.544q-.335.752-.731,1.544t-.918,1.774q-.522.981-1.19,2.191t-1.585,2.838l-4.466,7.93a6.482,6.482,0,0,1-1.9,2.15,4.826,4.826,0,0,1-2.859.813,4.944,4.944,0,0,1-2.943-.939,5.259,5.259,0,0,1-1.9-2.9l-7.1-24.541h8.64l2.629,9.724q.667,2.379,1.106,4.174t.772,3.506q.667-1.461,1.565-3.235t2.358-4.487l3.756-7.011a8.081,8.081,0,0,1,1.086-1.649,4.426,4.426,0,0,1,1.148-.939,3.86,3.86,0,0,1,1.273-.438,9.249,9.249,0,0,1,1.418-.1,9.56,9.56,0,0,1,1.461.1,3.868,3.868,0,0,1,1.273.438,4.786,4.786,0,0,1,1.169.939,7.539,7.539,0,0,1,1.106,1.649l3.714,7.053q.792,1.462,1.378,2.567t1.043,2q.459.9.814,1.649t.689,1.461q.333-1.669.814-3.506t1.1-4.174l2.63-9.724H76.2l-7.221,24.541a5.254,5.254,0,0,1-1.9,2.9,4.941,4.941,0,0,1-2.942.939,4.837,4.837,0,0,1-2.817-.792,6.548,6.548,0,0,1-1.941-2.171Z" transform="translate(-24.819 -186.067)"/><path class="cls-1" d="M88.258,214.447H79.619V186.526h8.639Z" transform="translate(-24.819 -186.067)"/><path class="cls-1" d="M121.939,214.906a4.5,4.5,0,0,1-3.464-1.5l-17.112-15.359v16.4H93.517V191.283a6.436,6.436,0,0,1,.4-2.378,4.545,4.545,0,0,1,1.044-1.628,3.973,3.973,0,0,1,1.5-.918,5.468,5.468,0,0,1,1.774-.292,5.061,5.061,0,0,1,1.607.271,5.518,5.518,0,0,1,1.857,1.231l17.112,15.359v-16.4H126.7v23.122a6.463,6.463,0,0,1-.4,2.379,4.8,4.8,0,0,1-1.044,1.648,3.832,3.832,0,0,1-1.523.939A5.662,5.662,0,0,1,121.939,214.906Z" transform="translate(-24.819 -186.067)"/><path class="cls-1" d="M167.306,200.215a12.733,12.733,0,0,1-1.273,5.656,13.823,13.823,0,0,1-3.506,4.507,16.586,16.586,0,0,1-5.321,2.984,20.126,20.126,0,0,1-6.72,1.085h-18.7v-17.4h8.681v10.226h10.017a10.963,10.963,0,0,0,3.318-.481,7.835,7.835,0,0,0,2.609-1.356,6.429,6.429,0,0,0,1.711-2.107,6.237,6.237,0,0,0,0-5.447,6.352,6.352,0,0,0-1.753-2.15,8.886,8.886,0,0,0-2.629-1.419,9.884,9.884,0,0,0-3.256-.521h-18.7l5.51-7.262h13.188a21.807,21.807,0,0,1,6.761,1,16.315,16.315,0,0,1,5.322,2.818,12.974,12.974,0,0,1,3.485,4.34A12.274,12.274,0,0,1,167.306,200.215Z" transform="translate(-24.819 -186.067)"/><path class="cls-1" d="M191.221,186.067q10.182,0,15.3,3.464t5.113,10.935q0,7.512-5.092,10.976t-15.317,3.464q-10.267,0-15.338-3.464t-5.071-10.976q0-7.471,5.092-10.935T191.221,186.067Zm0,21.577a47.148,47.148,0,0,0,5.509-.271,9.8,9.8,0,0,0,3.652-1.064,4.672,4.672,0,0,0,2.024-2.191,10.969,10.969,0,0,0,0-7.305,4.568,4.568,0,0,0-2.024-2.17,10.1,10.1,0,0,0-3.652-1.043,56.14,56.14,0,0,0-11.019,0,10.089,10.089,0,0,0-3.651,1.043,4.565,4.565,0,0,0-2.025,2.17,10.969,10.969,0,0,0,0,7.305,4.669,4.669,0,0,0,2.025,2.191,9.784,9.784,0,0,0,3.651,1.064A47.154,47.154,0,0,0,191.221,207.644Z" transform="translate(-24.819 -186.067)"/><path class="cls-1" d="M242.348,204.055q-.919-1.627-1.586-2.859t-1.211-2.212q-.543-.981-.939-1.774t-.772-1.544q-.335.752-.73,1.544t-.918,1.774q-.524.981-1.19,2.191t-1.586,2.838l-4.466,7.93a6.482,6.482,0,0,1-1.9,2.15,4.822,4.822,0,0,1-2.859.813,4.941,4.941,0,0,1-2.942-.939,5.254,5.254,0,0,1-1.9-2.9l-7.095-24.541H220.9l2.63,9.724q.666,2.379,1.106,4.174t.772,3.506q.666-1.461,1.565-3.235t2.358-4.487l3.756-7.011a8.123,8.123,0,0,1,1.085-1.649,4.443,4.443,0,0,1,1.148-.939,3.868,3.868,0,0,1,1.273-.438,9.272,9.272,0,0,1,1.419-.1,9.56,9.56,0,0,1,1.461.1,3.876,3.876,0,0,1,1.273.438,4.786,4.786,0,0,1,1.169.939,7.574,7.574,0,0,1,1.106,1.649l3.714,7.053q.792,1.462,1.378,2.567t1.043,2q.459.9.814,1.649l.688,1.461q.335-1.669.814-3.506t1.106-4.174l2.629-9.724h8.432l-7.221,24.541a5.259,5.259,0,0,1-1.9,2.9,4.941,4.941,0,0,1-2.942.939,4.841,4.841,0,0,1-2.818-.792,6.556,6.556,0,0,1-1.94-2.171Z" transform="translate(-24.819 -186.067)"/><path class="cls-1" d="M291.806,197.669q5.133,0,7.805,1.9a6.576,6.576,0,0,1,2.67,5.739,10.5,10.5,0,0,1-.667,3.84,6.8,6.8,0,0,1-2.129,2.88,10.271,10.271,0,0,1-3.735,1.794,20.747,20.747,0,0,1-5.447.626h-26l5.551-7.178h21.119a4.106,4.106,0,0,0,2.254-.481,1.749,1.749,0,0,0,.709-1.564,1.7,1.7,0,0,0-.709-1.545,4.27,4.27,0,0,0-2.254-.459H275.779a16.476,16.476,0,0,1-4.675-.584,9.393,9.393,0,0,1-3.255-1.628,6.4,6.4,0,0,1-1.92-2.525,8.336,8.336,0,0,1-.626-3.276,8.958,8.958,0,0,1,.689-3.569,6.874,6.874,0,0,1,2.128-2.733,10.461,10.461,0,0,1,3.715-1.753,20.731,20.731,0,0,1,5.447-.626H301.53l-5.551,7.262H276.614a4.64,4.64,0,0,0-2.233.417,1.58,1.58,0,0,0-.731,1.5,1.628,1.628,0,0,0,.731,1.523,4.45,4.45,0,0,0,2.233.438Z" transform="translate(-24.819 -186.067)"/><path class="cls-1" d="M325.2,186.526H335.42v27.921h-8.64V193.788h-6.8Z" transform="translate(-24.819 -186.067)"/><path class="cls-1" d="M357.665,186.067q8.89,0,13.356,3.464t4.466,10.935q0,7.512-4.445,10.976t-13.377,3.464q-8.931,0-13.376-3.464t-4.445-10.976q0-7.471,4.466-10.935T357.665,186.067Zm0,21.577a29.583,29.583,0,0,0,4.341-.271,6.466,6.466,0,0,0,2.88-1.064,4.523,4.523,0,0,0,1.586-2.191,13.565,13.565,0,0,0,0-7.305,4.405,4.405,0,0,0-1.586-2.17,6.647,6.647,0,0,0-2.88-1.043,35.064,35.064,0,0,0-8.7,0,6.611,6.611,0,0,0-2.859,1.043,4.4,4.4,0,0,0-1.586,2.17,13.565,13.565,0,0,0,0,7.305,4.516,4.516,0,0,0,1.586,2.191,6.43,6.43,0,0,0,2.859,1.064A29.487,29.487,0,0,0,357.665,207.644Z" transform="translate(-24.819 -186.067)"/></svg>