<svg id="Capa_1" data-name="Capa 1" xmlns="http://www.w3.org/2000/svg" viewBox="0 0 352.123 30.847"><defs><style>.cls-1{fill:#fff;}</style></defs><path class="cls-1" d="M60.907,196.208q-.982-1.742-1.7-3.058t-1.3-2.366q-.58-1.048-1-1.9t-.826-1.652q-.358.8-.781,1.652c-.284.566-.61,1.2-.983,1.9s-.8,1.481-1.272,2.344-1.042,1.875-1.7,3.036l-4.776,8.481a6.919,6.919,0,0,1-2.032,2.3,5.151,5.151,0,0,1-3.057.871,5.288,5.288,0,0,1-3.148-1,5.616,5.616,0,0,1-2.031-3.1l-7.589-26.249h9.241l2.812,10.4q.714,2.544,1.183,4.463t.826,3.75q.714-1.562,1.674-3.459t2.522-4.8l4.018-7.5a8.685,8.685,0,0,1,1.16-1.763,4.74,4.74,0,0,1,1.228-1,4.079,4.079,0,0,1,1.361-.469,9.882,9.882,0,0,1,1.518-.112,10.2,10.2,0,0,1,1.562.112,4.09,4.09,0,0,1,1.363.469,5.117,5.117,0,0,1,1.249,1,8.062,8.062,0,0,1,1.183,1.763l3.973,7.545q.848,1.563,1.473,2.745t1.117,2.143q.49.96.87,1.763c.253.535.5,1.057.737,1.562q.357-1.785.87-3.75t1.183-4.463l2.812-10.4h9.017l-7.722,26.249a5.626,5.626,0,0,1-2.031,3.1,5.287,5.287,0,0,1-3.147,1,5.178,5.178,0,0,1-3.014-.848,7,7,0,0,1-2.075-2.322Z" transform="translate(-28.721 -176.968)"/><path class="cls-1" d="M96.575,207.324h-9.24V177.459h9.24Z" transform="translate(-28.721 -176.968)"/><path class="cls-1" d="M132.6,207.815a4.81,4.81,0,0,1-3.7-1.607l-18.3-16.428v17.544H102.2V182.548a6.872,6.872,0,0,1,.425-2.544,4.836,4.836,0,0,1,1.116-1.741,4.235,4.235,0,0,1,1.607-.982,5.828,5.828,0,0,1,1.9-.313,5.431,5.431,0,0,1,1.719.29,5.931,5.931,0,0,1,1.986,1.317L129.251,195V177.459h8.437V202.19a6.924,6.924,0,0,1-.424,2.545,5.111,5.111,0,0,1-1.117,1.763,4.1,4.1,0,0,1-1.629,1A6.037,6.037,0,0,1,132.6,207.815Z" transform="translate(-28.721 -176.968)"/><path class="cls-1" d="M181.123,192.1a13.628,13.628,0,0,1-1.361,6.049,14.792,14.792,0,0,1-3.75,4.821,17.78,17.78,0,0,1-5.692,3.192,21.538,21.538,0,0,1-7.187,1.161h-20V188.709h9.286v10.936h10.714a11.74,11.74,0,0,0,3.549-.513,8.414,8.414,0,0,0,2.789-1.451,6.866,6.866,0,0,0,1.831-2.254,6.676,6.676,0,0,0,0-5.826,6.821,6.821,0,0,0-1.875-2.3,9.456,9.456,0,0,0-2.812-1.517,10.545,10.545,0,0,0-3.482-.559h-20l5.893-7.767h14.107a23.311,23.311,0,0,1,7.231,1.072,17.465,17.465,0,0,1,5.693,3.013,13.865,13.865,0,0,1,3.726,4.642A13.131,13.131,0,0,1,181.123,192.1Z" transform="translate(-28.721 -176.968)"/><path class="cls-1" d="M206.7,176.968q10.891,0,16.361,3.705t5.468,11.7q0,8.035-5.445,11.741t-16.384,3.7q-10.98,0-16.4-3.7t-5.424-11.741q0-7.99,5.446-11.7T206.7,176.968Zm0,23.079a50.341,50.341,0,0,0,5.893-.29,10.472,10.472,0,0,0,3.906-1.138,4.994,4.994,0,0,0,2.165-2.344,11.737,11.737,0,0,0,0-7.812,4.886,4.886,0,0,0-2.165-2.321,10.758,10.758,0,0,0-3.906-1.116,60.02,60.02,0,0,0-11.786,0,10.758,10.758,0,0,0-3.906,1.116,4.879,4.879,0,0,0-2.164,2.321,11.721,11.721,0,0,0,0,7.812,4.986,4.986,0,0,0,2.164,2.344,10.472,10.472,0,0,0,3.906,1.138A50.353,50.353,0,0,0,206.7,200.047Z" transform="translate(-28.721 -176.968)"/><path class="cls-1" d="M261.386,196.208q-.981-1.742-1.7-3.058t-1.294-2.366q-.58-1.048-1-1.9t-.826-1.652q-.357.8-.781,1.652t-.982,1.9q-.558,1.05-1.272,2.344t-1.7,3.036l-4.777,8.481a6.916,6.916,0,0,1-2.031,2.3,5.152,5.152,0,0,1-3.058.871,5.285,5.285,0,0,1-3.147-1,5.616,5.616,0,0,1-2.031-3.1L229.2,177.459h9.24l2.812,10.4q.716,2.544,1.184,4.463t.825,3.75q.716-1.562,1.675-3.459t2.521-4.8l4.018-7.5a8.684,8.684,0,0,1,1.161-1.763,4.753,4.753,0,0,1,1.227-1,4.092,4.092,0,0,1,1.362-.469,9.882,9.882,0,0,1,1.518-.112,10.2,10.2,0,0,1,1.562.112,4.085,4.085,0,0,1,1.362.469,5.1,5.1,0,0,1,1.25,1,8.062,8.062,0,0,1,1.183,1.763l3.972,7.545q.849,1.563,1.474,2.745t1.117,2.143q.489.96.87,1.763c.252.535.5,1.057.737,1.562q.355-1.785.87-3.75t1.183-4.463l2.812-10.4h9.017l-7.722,26.249a5.627,5.627,0,0,1-2.032,3.1,5.282,5.282,0,0,1-3.146,1,5.178,5.178,0,0,1-3.014-.848,7,7,0,0,1-2.075-2.322Z" transform="translate(-28.721 -176.968)"/><path class="cls-1" d="M314.286,189.378q5.49,0,8.348,2.031a7.035,7.035,0,0,1,2.857,6.138,11.221,11.221,0,0,1-.715,4.107,7.268,7.268,0,0,1-2.276,3.081,11,11,0,0,1-4,1.919,22.192,22.192,0,0,1-5.826.67H284.868l5.937-7.679h22.588a4.393,4.393,0,0,0,2.411-.513,1.872,1.872,0,0,0,.758-1.674,1.817,1.817,0,0,0-.758-1.652,4.568,4.568,0,0,0-2.411-.49H297.144a17.585,17.585,0,0,1-5-.626,10.028,10.028,0,0,1-3.482-1.741,6.856,6.856,0,0,1-2.054-2.7,8.941,8.941,0,0,1-.669-3.5,9.59,9.59,0,0,1,.737-3.816A7.34,7.34,0,0,1,288.952,180a11.2,11.2,0,0,1,3.973-1.875,22.139,22.139,0,0,1,5.826-.67h25.936l-5.937,7.767H298.037a4.971,4.971,0,0,0-2.389.447,1.691,1.691,0,0,0-.781,1.607,1.744,1.744,0,0,0,.781,1.63,4.769,4.769,0,0,0,2.389.468Z" transform="translate(-28.721 -176.968)"/><path class="cls-1" d="M350,177.459h10.937v29.865h-9.241v-22.1h-7.276Z" transform="translate(-28.721 -176.968)"/><path class="cls-1" d="M369.907,177.459h10.937v29.865H371.6v-22.1h-7.276Z" transform="translate(-28.721 -176.968)"/></svg>