<svg id="Capa_1" data-name="Capa 1" xmlns="http://www.w3.org/2000/svg" viewBox="0 0 349 29.947"><defs><style>.cls-1{fill:#fff;}</style></defs><path class="cls-1" d="M40.173,211.533l5.417-7.454h9.989c.938,0,1.756.028,2.447.087q-.608-.781-1.407-1.972t-1.538-2.232l-5.2-7.671L36.273,211.533H25.653l18.594-26.218a10.026,10.026,0,0,1,2.3-2.254A6.67,6.67,0,0,1,53.455,183a8.8,8.8,0,0,1,2.318,2.319L73.89,211.533Z" transform="translate(-25.653 -182.063)"/><path class="cls-1" d="M118.223,211.533h-12l-6.458-7.671H85.98v7.671H77.011V196.712h25.221a6.674,6.674,0,0,0,3.513-.868,2.665,2.665,0,0,0,1.428-2.382,2.823,2.823,0,0,0-1.3-2.536,6.641,6.641,0,0,0-3.639-.845H77.011l5.848-7.54H101.5a30.088,30.088,0,0,1,5.114.455,15.586,15.586,0,0,1,4.81,1.624A10.32,10.32,0,0,1,115,187.783,8.665,8.665,0,0,1,116.4,192.9a9.837,9.837,0,0,1-.519,3.208,8.808,8.808,0,0,1-3.879,4.789,9.765,9.765,0,0,1-3.185,1.191,21.232,21.232,0,0,1,1.647,1.43q.91.867,2.426,2.384Z" transform="translate(-25.653 -182.063)"/><path class="cls-1" d="M157.441,182.541l-5.805,7.54H141.278v21.452h-8.973V190.081H118.7l5.808-7.54Z" transform="translate(-25.653 -182.063)"/><path class="cls-1" d="M169.277,211.533h-8.972V182.541h8.972Z" transform="translate(-25.653 -182.063)"/><path class="cls-1" d="M211.744,204.079l-5.763,7.454H191.419a20.873,20.873,0,0,1-6.976-1.127,17.2,17.2,0,0,1-5.527-3.1,14.372,14.372,0,0,1-3.64-4.68,13.212,13.212,0,0,1-1.322-5.872,12.669,12.669,0,0,1,1.322-5.786,13.706,13.706,0,0,1,3.64-4.507,16.587,16.587,0,0,1,5.527-2.905,22.922,22.922,0,0,1,6.976-1.017h20.325l-5.763,7.54H191.419a10.617,10.617,0,0,0-3.379.52,8.261,8.261,0,0,0-2.687,1.452,6.827,6.827,0,0,0-1.778,2.232,6.382,6.382,0,0,0,1.757,7.888,8.414,8.414,0,0,0,2.708,1.407,11.027,11.027,0,0,0,3.379.5Z" transform="translate(-25.653 -182.063)"/><path class="cls-1" d="M252.525,198.879q0,13.13-18.071,13.13a42.889,42.889,0,0,1-9.015-.823,17.977,17.977,0,0,1-6.218-2.469,10.05,10.05,0,0,1-3.6-4.1,13.394,13.394,0,0,1-1.147-5.742V182.541H223.4v16.338a7.273,7.273,0,0,0,.434,2.687,3.512,3.512,0,0,0,1.626,1.755,9.44,9.44,0,0,0,3.357.954,45.572,45.572,0,0,0,5.633.28,25.714,25.714,0,0,0,4.334-.3,7.238,7.238,0,0,0,2.776-1,3.954,3.954,0,0,0,1.492-1.778,6.635,6.635,0,0,0,.458-2.6V182.541h9.011Z" transform="translate(-25.653 -182.063)"/><path class="cls-1" d="M289.018,204.079l-5.809,7.454H257.6V182.541h8.972v21.538Z" transform="translate(-25.653 -182.063)"/><path class="cls-1" d="M311.163,182.063q10.575,0,15.881,3.6t5.312,11.355q0,7.8-5.287,11.4t-15.906,3.595q-10.661,0-15.928-3.595t-5.265-11.4q0-7.758,5.287-11.355T311.163,182.063Zm0,22.406a48.905,48.905,0,0,0,5.72-.282,10.171,10.171,0,0,0,3.792-1.1,4.838,4.838,0,0,0,2.1-2.277,11.4,11.4,0,0,0,0-7.582,4.726,4.726,0,0,0-2.1-2.254,10.494,10.494,0,0,0-3.792-1.085,58.576,58.576,0,0,0-11.441,0,10.483,10.483,0,0,0-3.791,1.085,4.726,4.726,0,0,0-2.1,2.254,11.331,11.331,0,0,0,0,7.582,4.838,4.838,0,0,0,2.1,2.277,10.159,10.159,0,0,0,3.791,1.1A48.912,48.912,0,0,0,311.163,204.469Z" transform="translate(-25.653 -182.063)"/><path class="cls-1" d="M363.776,194.111q5.328,0,8.1,1.973a6.826,6.826,0,0,1,2.772,5.958,10.909,10.909,0,0,1-.695,3.988,7.072,7.072,0,0,1-2.207,2.99,10.693,10.693,0,0,1-3.88,1.862,21.5,21.5,0,0,1-5.657.651h-27l5.763-7.454h21.93a4.253,4.253,0,0,0,2.338-.5,1.809,1.809,0,0,0,.737-1.624,1.761,1.761,0,0,0-.737-1.6,4.428,4.428,0,0,0-2.338-.476H347.133a17.109,17.109,0,0,1-4.853-.606,9.786,9.786,0,0,1-3.382-1.69,6.67,6.67,0,0,1-1.993-2.622,8.648,8.648,0,0,1-.649-3.4,9.274,9.274,0,0,1,.716-3.705,7.166,7.166,0,0,1,2.208-2.84,10.9,10.9,0,0,1,3.858-1.819,21.567,21.567,0,0,1,5.654-.649h25.182l-5.763,7.54H348a4.831,4.831,0,0,0-2.321.434,1.643,1.643,0,0,0-.758,1.559,1.7,1.7,0,0,0,.758,1.582,4.64,4.64,0,0,0,2.321.455Z" transform="translate(-25.653 -182.063)"/></svg>