<svg id="Capa_1" data-name="Capa 1" xmlns="http://www.w3.org/2000/svg" viewBox="0 0 150 35.191"><defs><style>.cls-1{fill:#6389cf;}.cls-2{fill:#fff;}</style></defs><path class="cls-1" d="M149,.9V24.963l-8.415,8.883L83.608,33.8l-4.981.018L1.01,34.092l.235-23.786,9.4-9.4H149m1-1H10.233L.25,9.888,0,35.1l78.631-.276,4.981-.018,57.4.044L150,25.362V-.1Z" transform="translate(0 0.096)"/><path class="cls-2" d="M31.625,21.206V13.88h4.713a4.588,4.588,0,0,1,3.1.943A3.352,3.352,0,0,1,40.524,17.5a3.972,3.972,0,0,1-.423,1.847,3.207,3.207,0,0,1-1.192,1.293,3.471,3.471,0,0,1-1.188.433,10.052,10.052,0,0,1-1.82.135Zm1.7-1.379h2.2a4.285,4.285,0,0,0,2.5-.548,2.107,2.107,0,0,0,.735-1.808,2.239,2.239,0,0,0-.61-1.7,2.526,2.526,0,0,0-1.8-.579H33.33Z" transform="translate(0 0.096)"/><path class="cls-2" d="M43.649,21.206V13.88h7.5v1.248H45.354v1.636h3.383v1.248H45.354v1.815h5.864v1.379Z" transform="translate(0 0.096)"/><path class="cls-2" d="M60.713,15.163h-4.8v1.573h4.567a2.118,2.118,0,0,1,1.452.367,1.9,1.9,0,0,1,.378,1.366v1a1.9,1.9,0,0,1-.378,1.365,2.118,2.118,0,0,1-1.452.367H55.958a2.118,2.118,0,0,1-1.452-.367,1.9,1.9,0,0,1-.377-1.365v-.2l1.5-.311v.866H60.81V18.156H56.243a2.089,2.089,0,0,1-1.442-.367,1.91,1.91,0,0,1-.374-1.365v-.811a1.91,1.91,0,0,1,.374-1.365,2.089,2.089,0,0,1,1.442-.368H60.4a2.162,2.162,0,0,1,1.424.354,1.641,1.641,0,0,1,.392,1.254v.153l-1.5.353Z" transform="translate(0 0.096)"/><path class="cls-2" d="M72,15.19H67.4v4.637H72V18.254l1.7.353v.867a1.89,1.89,0,0,1-.378,1.368,2.1,2.1,0,0,1-1.438.364H67.512a2.1,2.1,0,0,1-1.442-.364,1.906,1.906,0,0,1-.374-1.368V15.613a1.91,1.91,0,0,1,.374-1.365,2.089,2.089,0,0,1,1.442-.368h4.373a2.091,2.091,0,0,1,1.438.368,1.9,1.9,0,0,1,.378,1.365v.693l-1.7.271Z" transform="translate(0 0.096)"/><path class="cls-2" d="M75.564,21.206l4.145-7.326h1.643l4.2,7.326H83.639l-.881-1.6H78.115l-.853,1.6Zm3.278-2.925h3.209l-1.58-2.98Z" transform="translate(0 0.096)"/><path class="cls-2" d="M87.908,21.206V13.88h6.266a1.924,1.924,0,0,1,1.264.337A1.356,1.356,0,0,1,95.83,15.3V17.02a1.361,1.361,0,0,1-.392,1.082,1.917,1.917,0,0,1-1.264.338h-.957L96.6,21.206H94.152L91.2,18.44H89.586v2.766Zm5.51-6.057H89.586v2.038h3.832a1.021,1.021,0,0,0,.606-.129.546.546,0,0,0,.164-.454v-.88a.537.537,0,0,0-.164-.447A1.023,1.023,0,0,0,93.418,15.149Z" transform="translate(0 0.096)"/><path class="cls-2" d="M106.163,15.19h-5.322v4.637h5.322V18.2h-2.786V16.951h4.442v2.523a1.9,1.9,0,0,1-.374,1.368,2.1,2.1,0,0,1-1.441.364h-5.053a2.1,2.1,0,0,1-1.441-.364,1.906,1.906,0,0,1-.374-1.368V15.613a1.91,1.91,0,0,1,.374-1.365,2.089,2.089,0,0,1,1.441-.368H106a2.115,2.115,0,0,1,1.434.361,1.763,1.763,0,0,1,.381,1.3v.166l-1.656.3Z" transform="translate(0 0.096)"/><path class="cls-2" d="M109.774,21.206l4.145-7.326h1.642l4.2,7.326h-1.913l-.88-1.6h-4.644l-.852,1.6Zm3.278-2.925h3.209l-1.58-2.98Z" transform="translate(0 0.096)"/></svg>