<svg id="Capa_1" data-name="Capa 1" xmlns="http://www.w3.org/2000/svg" viewBox="0 0 150 35.191"><defs><style>.cls-1{fill:#6389cf;}.cls-2{fill:#fff;}</style></defs><path class="cls-1" d="M149,.9V24.963l-8.415,8.883L83.608,33.8l-4.981.018L1.01,34.092l.235-23.786,9.4-9.4H149m1-1H10.233L.25,9.888,0,35.1l78.631-.276,4.981-.018,57.4.044L150,25.362V-.1Z" transform="translate(0 0.096)"/><path class="cls-2" d="M52.757,15.2H47.463v4.61h5.294v-1.62H49.986v-1.24H54.4v2.509a1.894,1.894,0,0,1-.372,1.361,2.094,2.094,0,0,1-1.434.363H47.574a2.094,2.094,0,0,1-1.434-.363,1.894,1.894,0,0,1-.373-1.361V15.623a1.9,1.9,0,0,1,.373-1.358,2.077,2.077,0,0,1,1.434-.365H52.6a2.119,2.119,0,0,1,1.427.358,1.752,1.752,0,0,1,.379,1.3v.166l-1.647.3Z" transform="translate(0 0.096)"/><path class="cls-2" d="M57.989,21.186V13.9h1.7v7.286Z" transform="translate(0 0.096)"/><path class="cls-2" d="M66.8,15.2v5.983H65.1V15.2H61.759V13.9h8.4v1.3Z" transform="translate(0 0.096)"/><path class="cls-2" d="M72.229,21.186V13.9h1.7v2.826h5.294V13.9h1.709v7.286H79.218V18.049H73.924v3.137Z" transform="translate(0 0.096)"/><path class="cls-2" d="M86.346,13.9v5.913h4.832V13.9h1.688v5.562a1.894,1.894,0,0,1-.372,1.361,2.091,2.091,0,0,1-1.433.363H86.456a2.1,2.1,0,0,1-1.431-.363,1.884,1.884,0,0,1-.375-1.361V13.9Z" transform="translate(0 0.096)"/><path class="cls-2" d="M96.6,21.186V13.9h6.245a1.88,1.88,0,0,1,1.247.337,1.358,1.358,0,0,1,.386,1.076V16.2a1.113,1.113,0,0,1-.324.838,1.582,1.582,0,0,1-.93.389,1.547,1.547,0,0,1,.968.448,1.339,1.339,0,0,1,.341.951v.931A1.2,1.2,0,0,1,104,20.834a2.958,2.958,0,0,1-1.612.352Zm5.535-6.1H98.264v1.737h3.867a1.133,1.133,0,0,0,.609-.117.458.458,0,0,0,.169-.407v-.689a.461.461,0,0,0-.169-.4A1.1,1.1,0,0,0,102.131,15.085Zm0,2.936H98.264v1.855h3.867a1.043,1.043,0,0,0,.651-.146.638.638,0,0,0,.168-.509v-.552a.631.631,0,0,0-.168-.506A1.061,1.061,0,0,0,102.131,18.021Z" transform="translate(0 0.096)"/></svg>