<svg id="Capa_1" data-name="Capa 1" xmlns="http://www.w3.org/2000/svg" viewBox="0 0 159.2174 194.5781"><defs><style>.cls-1,.cls-2{fill:#fff;}.cls-1{stroke:#fff;stroke-width:0.2158px;}.cls-3{fill:#000e3f;}</style></defs><path class="cls-1" d="M77.9605,204.35,74.47,208.8825H68.2442v12.8946H62.8521V208.8825H54.6729l3.4907-4.5322Z" transform="translate(-45.1216 -27.593)"/><path class="cls-1" d="M99.2945,217.2966l-3.4644,4.48H87.0777a12.5508,12.5508,0,0,1-4.1939-.6778,10.3389,10.3389,0,0,1-3.3213-1.8623,8.6131,8.6131,0,0,1-2.188-2.8125,7.937,7.937,0,0,1-.7944-3.53,7.6082,7.6082,0,0,1,.7944-3.4776,8.2458,8.2458,0,0,1,2.188-2.709,10.0028,10.0028,0,0,1,3.3213-1.7451,13.7858,13.7858,0,0,1,4.1939-.6123H99.2945L95.83,208.8825H87.0777a6.37,6.37,0,0,0-2.0318.3135,4.9624,4.9624,0,0,0-1.6152.8721,4.1026,4.1026,0,0,0-1.0679,1.3418,3.8341,3.8341,0,0,0,1.0547,4.74,5.057,5.057,0,0,0,1.6284.8467,6.6267,6.6267,0,0,0,2.0318.3Z" transform="translate(-45.1216 -27.593)"/><path class="cls-1" d="M120.0552,217.2966l-3.4907,4.48H101.17V204.35h5.3921v12.9463Z" transform="translate(-45.1216 -27.593)"/><path class="cls-1" d="M142.0918,217.2966l-3.4648,4.48H121.8521V204.35H142.04l-3.4912,4.5322H127.2705v2.084h13.8057l-3.1,3.96H127.2705v2.37Z" transform="translate(-45.1216 -27.593)"/><path class="cls-1" d="M150.4278,221.7771l3.2558-4.48h6.0049q.8452,0,1.4717.0518-.3648-.4687-.8467-1.1846t-.9248-1.3418l-3.126-4.61-8.1787,11.5655h-6.3828l11.1748-15.76a6.0726,6.0726,0,0,1,1.3809-1.3545,4.0176,4.0176,0,0,1,4.1552-.039,5.34,5.34,0,0,1,1.3936,1.3935l10.8877,15.76Z" transform="translate(-45.1216 -27.593)"/><path class="cls-1" d="M190.2813,222.0632a2.8086,2.8086,0,0,1-2.1621-.9375L177.44,211.54v10.2373H172.542V207.32a4.0188,4.0188,0,0,1,.2481-1.4843,2.8462,2.8462,0,0,1,.6513-1.0166,2.4809,2.4809,0,0,1,.9375-.5723,3.3849,3.3849,0,0,1,1.1075-.1826,3.1789,3.1789,0,0,1,1.0029.1689,3.4635,3.4635,0,0,1,1.1592.7686l10.68,9.5859V204.35h4.9228V218.782a4.027,4.027,0,0,1-.2471,1.4843,2.9992,2.9992,0,0,1-.6513,1.0293,2.412,2.412,0,0,1-.9512.586A3.5312,3.5312,0,0,1,190.2813,222.0632Z" transform="translate(-45.1216 -27.593)"/><path class="cls-2" d="M124.73,38.4188a68.7829,68.7829,0,1,1-68.7828,68.7828A68.8608,68.8608,0,0,1,124.73,38.4188m0-10.8258a79.6087,79.6087,0,1,0,79.6087,79.6086A79.6086,79.6086,0,0,0,124.73,27.593Z" transform="translate(-45.1216 -27.593)"/><polygon class="cls-2" points="32.407 55.905 41.998 37.682 125.923 37.682 114.733 55.905 32.407 55.905"/><path class="cls-2" d="M108.4964,83.4984v31.2254s-5.6884,7.331-7.9264,14.2048c.4937-.3769,19.681-23.1148,39.7553-30.43,0,0-6.048-.6127-11.0672,1.8915l-.1066-16.9448Z" transform="translate(-45.1216 -27.593)"/><path class="cls-2" d="M108.976,126.02s5.3608-7.3853,10.5146-11.35c4.1562-3.1971,13.7077-7.4689,13.7077-7.4689s-9.2895,1.6223-14.8534,6.1368C110.0083,120.1026,108.976,126.02,108.976,126.02Z" transform="translate(-45.1216 -27.593)"/><path class="cls-2" d="M109.5755,131.5354s6.6092-8.5983,11.3538-12.7886c3.801-3.357,13.348-9.1917,13.348-9.1917a48.6994,48.6994,0,0,0-14.92,7.7264C111.0116,124.0344,109.5755,131.5354,109.5755,131.5354Z" transform="translate(-45.1216 -27.593)"/><path class="cls-2" d="M108.4964,140.4874V148.8l21.7845,10.95-.24-40.2839s6.4476-5.5683,9.2451-6.7673C139.2862,112.6989,119.75,111.5138,108.4964,140.4874Z" transform="translate(-45.1216 -27.593)"/><path class="cls-3" d="M185.7448,100.5537a1.9172,1.9172,0,0,0,0-3.8322,1.9172,1.9172,0,0,0,0,3.8322Z" transform="translate(-45.1216 -27.593)"/></svg>