<svg id="Capa_1" data-name="Capa 1" xmlns="http://www.w3.org/2000/svg" viewBox="0 0 350.065 20.896"><defs><style>.cls-1{fill:#fff;}</style></defs><path class="cls-1" d="M51.86,186.8a6.951,6.951,0,0,1-.665,3.07,6.384,6.384,0,0,1-1.95,2.343,9.715,9.715,0,0,1-3.13,1.512,14.862,14.862,0,0,1-4.2.544H31.327v5.172H25.1V189.1H42.517a3.547,3.547,0,0,0,2.253-.636,2.052,2.052,0,0,0,.8-1.693,2.011,2.011,0,0,0-.8-1.678,3.615,3.615,0,0,0-2.253-.62H25.1l4.142-5.262h12.7a14.5,14.5,0,0,1,4.2.559,9.416,9.416,0,0,1,3.114,1.558,6.66,6.66,0,0,1,1.935,2.389A7.046,7.046,0,0,1,51.86,186.8Z" transform="translate(-25.098 -178.878)"/><path class="cls-1" d="M83.734,199.442H75.357l-4.5-5.353H61.235v5.353H54.976V189.1h17.6a4.647,4.647,0,0,0,2.449-.6,1.863,1.863,0,0,0,1-1.664,1.97,1.97,0,0,0-.908-1.769,4.645,4.645,0,0,0-2.54-.589h-17.6l4.082-5.262h13a21,21,0,0,1,3.568.317,10.89,10.89,0,0,1,3.356,1.135,7.2,7.2,0,0,1,2.5,2.207,6.043,6.043,0,0,1,.983,3.568,6.845,6.845,0,0,1-.363,2.238,6.276,6.276,0,0,1-1.043,1.905,6.205,6.205,0,0,1-1.664,1.436,6.823,6.823,0,0,1-2.223.833,14.028,14.028,0,0,1,1.149,1q.636.606,1.694,1.664Z" transform="translate(-25.098 -178.878)"/><path class="cls-1" d="M99.4,178.878q7.379,0,11.084,2.51t3.7,7.923q0,5.444-3.69,7.954t-11.1,2.509q-7.439,0-11.113-2.509t-3.674-7.954q0-5.412,3.69-7.923T99.4,178.878Zm0,15.635a34.182,34.182,0,0,0,3.993-.2,7.084,7.084,0,0,0,2.645-.771,3.378,3.378,0,0,0,1.467-1.588,7.938,7.938,0,0,0,0-5.292,3.3,3.3,0,0,0-1.467-1.572,7.306,7.306,0,0,0-2.645-.757,40.751,40.751,0,0,0-7.984,0,7.318,7.318,0,0,0-2.646.757,3.308,3.308,0,0,0-1.467,1.572,7.954,7.954,0,0,0,0,5.292,3.383,3.383,0,0,0,1.467,1.588,7.1,7.1,0,0,0,2.646.771A34.157,34.157,0,0,0,99.4,194.513Z" transform="translate(-25.098 -178.878)"/><path class="cls-1" d="M129.852,186.8h12.943v12.641H128.914a14.588,14.588,0,0,1-4.868-.786,12.04,12.04,0,0,1-3.856-2.162,10.02,10.02,0,0,1-2.541-3.267,9.211,9.211,0,0,1-.921-4.1,8.834,8.834,0,0,1,.921-4.037,9.573,9.573,0,0,1,2.541-3.145,11.607,11.607,0,0,1,3.856-2.027,16.024,16.024,0,0,1,4.868-.71H143.4l-4.051,5.262H128.914a7.433,7.433,0,0,0-2.358.362,5.8,5.8,0,0,0-1.891,1.029,4.916,4.916,0,0,0-1.255,1.557,4.312,4.312,0,0,0-.453,1.981,4.348,4.348,0,0,0,1.678,3.508,5.9,5.9,0,0,0,1.89.982,7.813,7.813,0,0,0,2.389.348h7.651v-2.933H126.1Z" transform="translate(-25.098 -178.878)"/><path class="cls-1" d="M175.092,199.442h-8.377l-4.506-5.353h-9.616v5.353h-6.26V189.1h17.6a4.649,4.649,0,0,0,2.449-.6,1.862,1.862,0,0,0,1-1.664,1.971,1.971,0,0,0-.907-1.769,4.648,4.648,0,0,0-2.54-.589h-17.6l4.082-5.262h13a20.986,20.986,0,0,1,3.568.317,10.9,10.9,0,0,1,3.357,1.135,7.19,7.19,0,0,1,2.5,2.207,6.043,6.043,0,0,1,.983,3.568,6.845,6.845,0,0,1-.363,2.238,6.138,6.138,0,0,1-2.707,3.341,6.806,6.806,0,0,1-2.223.833,14.194,14.194,0,0,1,1.15,1q.636.606,1.693,1.664Z" transform="translate(-25.098 -178.878)"/><path class="cls-1" d="M185.887,199.442l3.78-5.2h6.971q.982,0,1.709.061-.425-.544-.984-1.376t-1.073-1.557l-3.629-5.353-9.5,13.427h-7.408l12.973-18.3a6.989,6.989,0,0,1,1.6-1.572,4.658,4.658,0,0,1,4.823-.046,6.193,6.193,0,0,1,1.618,1.618l12.64,18.3Z" transform="translate(-25.098 -178.878)"/><path class="cls-1" d="M225.623,186.741q.665,1.179,1.165,2.071t.877,1.588q.378.7.665,1.27l.56,1.119c.161-.363.337-.73.529-1.1s.413-.8.665-1.27.544-1,.877-1.588.721-1.27,1.164-2.056l3.236-5.746a4.7,4.7,0,0,1,1.376-1.557,3.493,3.493,0,0,1,2.072-.59,3.575,3.575,0,0,1,2.131.681,3.806,3.806,0,0,1,1.376,2.1l5.111,17.782H241.2l-1.905-7.046q-.483-1.725-.816-3.025t-.575-2.54q-.513,1.061-1.149,2.344t-1.663,3.251l-2.722,5.08a5.383,5.383,0,0,1-.8,1.195,3.513,3.513,0,0,1-.831.68,2.66,2.66,0,0,1-.907.318,7.507,7.507,0,0,1-2.117,0,2.653,2.653,0,0,1-.907-.318,3.533,3.533,0,0,1-.831-.68,5.383,5.383,0,0,1-.8-1.195l-2.722-5.11q-.544-1.029-.967-1.845t-.772-1.467c-.231-.433-.434-.831-.6-1.194s-.338-.716-.5-1.059q-.243,1.211-.575,2.525t-.786,3.04l-1.905,7.046H210.2l5.233-17.782a3.771,3.771,0,0,1,1.39-2.1,3.652,3.652,0,0,1,2.148-.681,3.508,3.508,0,0,1,2.041.575,4.483,4.483,0,0,1,1.376,1.572Z" transform="translate(-25.098 -178.878)"/><path class="cls-1" d="M258.283,199.442l3.781-5.2h6.97q.984,0,1.709.061-.425-.544-.983-1.376t-1.073-1.557l-3.629-5.353-9.5,13.427h-7.409l12.973-18.3a6.994,6.994,0,0,1,1.6-1.572,4.658,4.658,0,0,1,4.823-.046,6.174,6.174,0,0,1,1.617,1.618l12.641,18.3Z" transform="translate(-25.098 -178.878)"/><path class="cls-1" d="M306.668,194.24l-4.021,5.2H292.485a14.592,14.592,0,0,1-4.868-.786,12.04,12.04,0,0,1-3.856-2.162,10.017,10.017,0,0,1-2.54-3.267,9.212,9.212,0,0,1-.922-4.1,8.834,8.834,0,0,1,.922-4.037,9.57,9.57,0,0,1,2.54-3.145,11.607,11.607,0,0,1,3.856-2.027,16.029,16.029,0,0,1,4.868-.71h14.183l-4.021,5.262H292.485a7.442,7.442,0,0,0-2.358.362,5.769,5.769,0,0,0-1.875,1.014,4.769,4.769,0,0,0-1.24,1.557,4.454,4.454,0,0,0,1.224,5.5,5.9,5.9,0,0,0,1.891.982,7.707,7.707,0,0,0,2.358.348Z" transform="translate(-25.098 -178.878)"/><path class="cls-1" d="M315.2,199.442h-6.259V179.211H315.2Z" transform="translate(-25.098 -178.878)"/><path class="cls-1" d="M333.249,178.878q7.378,0,11.084,2.51t3.7,7.923q0,5.444-3.689,7.954t-11.1,2.509q-7.438,0-11.113-2.509t-3.674-7.954q0-5.412,3.689-7.923T333.249,178.878Zm0,15.635a34.176,34.176,0,0,0,3.992-.2,7.089,7.089,0,0,0,2.646-.771,3.378,3.378,0,0,0,1.467-1.588,7.938,7.938,0,0,0,0-5.292,3.3,3.3,0,0,0-1.467-1.572,7.312,7.312,0,0,0-2.646-.757,40.741,40.741,0,0,0-7.983,0,7.324,7.324,0,0,0-2.647.757,3.306,3.306,0,0,0-1.466,1.572,7.938,7.938,0,0,0,0,5.292,3.381,3.381,0,0,0,1.466,1.588,7.1,7.1,0,0,0,2.647.771A34.157,34.157,0,0,0,333.249,194.513Z" transform="translate(-25.098 -178.878)"/><path class="cls-1" d="M371.716,199.774a3.26,3.26,0,0,1-2.51-1.088l-12.4-11.129v11.885h-5.686V182.658a4.69,4.69,0,0,1,.287-1.724,3.33,3.33,0,0,1,.756-1.179,2.9,2.9,0,0,1,1.089-.665,3.953,3.953,0,0,1,1.285-.212,3.662,3.662,0,0,1,1.164.2,3.985,3.985,0,0,1,1.346.892l12.4,11.128V179.211h5.715v16.753a4.69,4.69,0,0,1-.287,1.724,3.443,3.443,0,0,1-.756,1.194,2.775,2.775,0,0,1-1.1.681A4.1,4.1,0,0,1,371.716,199.774Z" transform="translate(-25.098 -178.878)"/></svg>