<svg id="Capa_1" data-name="Capa 1" xmlns="http://www.w3.org/2000/svg" viewBox="0 0 350 41.007"><defs><style>.cls-1{fill:#fff;}</style></defs><path class="cls-1" d="M52.071,205.329l7.538-10.373h13.9q1.959,0,3.407.122-.845-1.085-1.96-2.744t-2.141-3.106l-7.236-10.674L46.644,205.329H31.87l25.87-36.483a13.939,13.939,0,0,1,3.2-3.136,9.29,9.29,0,0,1,9.618-.09,12.3,12.3,0,0,1,3.227,3.226l25.206,36.483Z" transform="translate(-31.87 -164.323)"/><path class="cls-1" d="M148.556,194.956l-8.02,10.373H120.274a29.083,29.083,0,0,1-9.709-1.567,24,24,0,0,1-7.688-4.312,19.942,19.942,0,0,1-5.066-6.512,18.37,18.37,0,0,1-1.839-8.172,17.612,17.612,0,0,1,1.839-8.05,19.04,19.04,0,0,1,5.066-6.271,23.137,23.137,0,0,1,7.688-4.041,31.921,31.921,0,0,1,9.709-1.418h28.282l-8.02,10.494H120.274a14.808,14.808,0,0,0-4.7.723,11.5,11.5,0,0,0-3.738,2.02,9.511,9.511,0,0,0-2.473,3.1A8.881,8.881,0,0,0,111.8,192.3a11.764,11.764,0,0,0,3.769,1.96,15.4,15.4,0,0,0,4.7.692Z" transform="translate(-31.87 -164.323)"/><path class="cls-1" d="M199.753,194.956l-8.02,10.373H152.9V164.986h46.735l-8.081,10.494H165.441V180.3H197.4l-7.176,9.166H165.441v5.486Z" transform="translate(-31.87 -164.323)"/><path class="cls-1" d="M261.263,205.329h-16.7l-8.984-10.673H216.4v10.673H203.914V184.705h35.1A9.256,9.256,0,0,0,243.9,183.5a3.714,3.714,0,0,0,1.99-3.317,3.928,3.928,0,0,0-1.809-3.528,9.26,9.26,0,0,0-5.066-1.175h-35.1l8.141-10.494h25.93a41.855,41.855,0,0,1,7.116.634,21.766,21.766,0,0,1,6.694,2.261,14.365,14.365,0,0,1,4.975,4.4,12.058,12.058,0,0,1,1.96,7.116,13.645,13.645,0,0,1-.724,4.462,12.254,12.254,0,0,1-5.4,6.664,13.589,13.589,0,0,1-4.432,1.658,28.662,28.662,0,0,1,2.292,1.991q1.266,1.208,3.376,3.316Z" transform="translate(-31.87 -164.323)"/><path class="cls-1" d="M315.6,194.956l-8.02,10.373H287.314a29.079,29.079,0,0,1-9.709-1.567,23.982,23.982,0,0,1-7.688-4.312,19.942,19.942,0,0,1-5.066-6.512,18.37,18.37,0,0,1-1.839-8.172,17.612,17.612,0,0,1,1.839-8.05,19.04,19.04,0,0,1,5.066-6.271,23.117,23.117,0,0,1,7.688-4.041,31.916,31.916,0,0,1,9.709-1.418H315.6l-8.02,10.494H287.314a14.8,14.8,0,0,0-4.7.723,11.493,11.493,0,0,0-3.738,2.02,9.511,9.511,0,0,0-2.473,3.1,8.881,8.881,0,0,0,2.442,10.976,11.764,11.764,0,0,0,3.769,1.96,15.392,15.392,0,0,0,4.7.692Z" transform="translate(-31.87 -164.323)"/><path class="cls-1" d="M334.953,205.329l7.539-10.373h13.9q1.958,0,3.406.122-.844-1.085-1.959-2.744t-2.141-3.106l-7.237-10.674-18.935,26.775H314.752l25.87-36.483a13.959,13.959,0,0,1,3.2-3.136,9.292,9.292,0,0,1,9.619-.09,12.31,12.31,0,0,1,3.226,3.226l25.207,36.483Z" transform="translate(-31.87 -164.323)"/></svg>