<svg id="Capa_1" data-name="Capa 1" xmlns="http://www.w3.org/2000/svg" viewBox="0 0 238 44.996"><defs><style>.cls-1{fill:#fff;}</style></defs><path class="cls-1" d="M132.032,188.208a9.627,9.627,0,0,1,4.852,3.32,9.881,9.881,0,0,1,1.986,6.382,14.583,14.583,0,0,1-.847,5.047,9.391,9.391,0,0,1-2.865,4,14.626,14.626,0,0,1-5.437,2.67,31.732,31.732,0,0,1-8.563.977H82.87v-26.5h38.548a5.437,5.437,0,0,0,2.638-.619,2.39,2.39,0,0,0,1.139-2.312,2.241,2.241,0,0,0-1.172-2.214,5.739,5.739,0,0,0-2.6-.586H82.87l9.116-11.33h28.847a30.684,30.684,0,0,1,7.064.749,16.113,16.113,0,0,1,5.4,2.279,10.609,10.609,0,0,1,3.452,3.777,10.938,10.938,0,0,1,1.2,5.241,10.5,10.5,0,0,1-.521,3.452,10.348,10.348,0,0,1-1.335,2.636,7.75,7.75,0,0,1-1.888,1.889A9.134,9.134,0,0,1,132.032,188.208Zm-35.618,5.209v5.99h24.809a5.139,5.139,0,0,0,3.191-.781,2.746,2.746,0,0,0,.977-2.279,2.582,2.582,0,0,0-.977-2.181,5.311,5.311,0,0,0-3.191-.749Z" transform="translate(-82.87 -166.328)"/><path class="cls-1" d="M192.85,199.407l-8.725,11.2H145.641V167.045H159.12v32.362Z" transform="translate(-82.87 -166.328)"/><path class="cls-1" d="M226.125,166.328q15.888,0,23.865,5.405t7.977,17.061q0,11.721-7.944,17.125t-23.9,5.405q-16.019,0-23.93-5.405t-7.911-17.125q0-11.655,7.944-17.061T226.125,166.328Zm0,33.666a73.409,73.409,0,0,0,8.6-.424,15.245,15.245,0,0,0,5.7-1.66,7.287,7.287,0,0,0,3.159-3.418,17.121,17.121,0,0,0,0-11.4,7.128,7.128,0,0,0-3.159-3.386,15.731,15.731,0,0,0-5.7-1.628,87.543,87.543,0,0,0-17.191,0,15.743,15.743,0,0,0-5.7,1.628,7.126,7.126,0,0,0-3.158,3.386,17.1,17.1,0,0,0,0,11.4,7.285,7.285,0,0,0,3.158,3.418,15.257,15.257,0,0,0,5.7,1.66A73.39,73.39,0,0,0,226.125,199.994Z" transform="translate(-82.87 -166.328)"/><path class="cls-1" d="M291.7,183.389h27.871v27.219H289.679a31.411,31.411,0,0,1-10.484-1.693,25.911,25.911,0,0,1-8.3-4.656,21.534,21.534,0,0,1-5.47-7.033,19.829,19.829,0,0,1-1.986-8.823,19.023,19.023,0,0,1,1.986-8.693,20.589,20.589,0,0,1,5.47-6.772,24.968,24.968,0,0,1,8.3-4.363,34.507,34.507,0,0,1,10.484-1.53H320.87l-8.726,11.33H289.679a15.968,15.968,0,0,0-5.079.781,12.486,12.486,0,0,0-4.07,2.214,10.546,10.546,0,0,0-2.7,3.354,9.263,9.263,0,0,0-.977,4.265,9.355,9.355,0,0,0,3.614,7.554,12.708,12.708,0,0,0,4.07,2.116,16.838,16.838,0,0,0,5.144.748h16.474v-6.316h-22.53Z" transform="translate(-82.87 -166.328)"/></svg>