<svg id="Capa_1" data-name="Capa 1" xmlns="http://www.w3.org/2000/svg" viewBox="0 0 145.331 96.072"><defs><style>.cls-1{fill:#fff;}</style></defs><path class="cls-1" d="M270.519,152l-30.3,27.716q-5.026,4.6-8.472,7.683t-5.888,5.17q-2.441,2.084-4.094,3.446t-2.942,2.37q1.29.861,2.872,2.154t4.164,3.662q2.586,2.37,6.464,5.96l9.764,9.046,30.733,28.865H230.886l-32.745-31.737L164.4,248.072H127.488L158.8,219.207q5.453-5.025,9.189-8.4t6.176-5.53q2.439-2.154,4.093-3.446c1.1-.862,2.083-1.627,2.943-2.3-.86-.668-1.821-1.411-2.872-2.226s-2.394-1.96-4.02-3.446-3.686-3.349-6.176-5.6-5.6-5.145-9.333-8.688L129.356,152h41.213l30.588,29.871L232.034,152Z" transform="translate(-127.488 -152)"/></svg>