<svg id="Capa_1" data-name="Capa 1" xmlns="http://www.w3.org/2000/svg" viewBox="0 0 350.591 33.123"><defs><style>.cls-1{fill:#fff;}</style></defs><path class="cls-1" d="M66.372,182.615,60,190.86H43.891a23.121,23.121,0,0,1-7.717-1.246,19.055,19.055,0,0,1-6.112-3.427,15.851,15.851,0,0,1-4.026-5.177,14.59,14.59,0,0,1-1.462-6.5,13.991,13.991,0,0,1,1.462-6.4,15.129,15.129,0,0,1,4.026-4.985,18.367,18.367,0,0,1,6.112-3.212,25.37,25.37,0,0,1,7.717-1.127H66.372L60,167.133H43.891a11.772,11.772,0,0,0-3.739.575,9.149,9.149,0,0,0-2.971,1.6,7.566,7.566,0,0,0-1.966,2.469,7.06,7.06,0,0,0,1.941,8.725,9.391,9.391,0,0,0,3,1.558,12.244,12.244,0,0,0,3.739.55Z" transform="translate(-24.574 -158.265)"/><path class="cls-1" d="M92.257,158.265q11.7,0,17.568,3.978T115.7,174.8q0,8.63-5.848,12.607t-17.592,3.979q-11.793,0-17.616-3.979T68.817,174.8q0-8.58,5.848-12.559T92.257,158.265Zm0,24.782a53.883,53.883,0,0,0,6.327-.312,11.209,11.209,0,0,0,4.194-1.222A5.358,5.358,0,0,0,105.1,179a12.594,12.594,0,0,0,0-8.389,5.239,5.239,0,0,0-2.325-2.492,11.572,11.572,0,0,0-4.194-1.2,54.128,54.128,0,0,0-6.327-.311,54.1,54.1,0,0,0-6.327.311,11.584,11.584,0,0,0-4.2,1.2,5.244,5.244,0,0,0-2.325,2.492,12.594,12.594,0,0,0,0,8.389,5.363,5.363,0,0,0,2.325,2.516,11.22,11.22,0,0,0,4.2,1.222A53.86,53.86,0,0,0,92.257,183.047Z" transform="translate(-24.574 -158.265)"/><path class="cls-1" d="M153.229,191.388a5.172,5.172,0,0,1-3.978-1.726L129.6,172.022V190.86h-9.011v-26.6a7.406,7.406,0,0,1,.455-2.733,5.252,5.252,0,0,1,1.2-1.869,4.588,4.588,0,0,1,1.726-1.055,6.278,6.278,0,0,1,2.037-.335,5.812,5.812,0,0,1,1.846.312,6.324,6.324,0,0,1,2.133,1.413l19.653,17.64V158.792h9.059v26.556a7.422,7.422,0,0,1-.455,2.732,5.5,5.5,0,0,1-1.2,1.894,4.408,4.408,0,0,1-1.75,1.078A6.5,6.5,0,0,1,153.229,191.388Z" transform="translate(-24.574 -158.265)"/><path class="cls-1" d="M204.375,158.792l-6.424,8.341H186.5V190.86h-9.922V167.133H161.521l6.423-8.341Z" transform="translate(-24.574 -158.265)"/><path class="cls-1" d="M210.846,190.86l5.992-8.245h11.049q1.557,0,2.708.1-.672-.862-1.558-2.182t-1.7-2.468l-5.752-8.485L206.532,190.86H194.788l20.564-29a11.069,11.069,0,0,1,2.54-2.492,7.388,7.388,0,0,1,7.646-.073,9.788,9.788,0,0,1,2.564,2.565l20.037,29Z" transform="translate(-24.574 -158.265)"/><path class="cls-1" d="M287.541,182.615l-6.375,8.245H265.06a23.131,23.131,0,0,1-7.718-1.246,19.061,19.061,0,0,1-6.111-3.427,15.841,15.841,0,0,1-4.027-5.177,14.6,14.6,0,0,1-1.462-6.5,14,14,0,0,1,1.462-6.4,15.119,15.119,0,0,1,4.027-4.985,18.372,18.372,0,0,1,6.111-3.212,25.381,25.381,0,0,1,7.718-1.127h22.481l-6.375,8.341H265.06a11.764,11.764,0,0,0-3.739.575,9.143,9.143,0,0,0-2.972,1.6,7.593,7.593,0,0,0-1.966,2.469,7.062,7.062,0,0,0,1.942,8.725,9.37,9.37,0,0,0,3,1.558,12.235,12.235,0,0,0,3.739.55Z" transform="translate(-24.574 -158.265)"/><path class="cls-1" d="M330.825,158.792l-6.423,8.341H312.946V190.86h-9.923V167.133H287.972l6.423-8.341Z" transform="translate(-24.574 -158.265)"/><path class="cls-1" d="M351.725,158.265q11.7,0,17.568,3.978t5.872,12.559q0,8.63-5.848,12.607t-17.592,3.979q-11.792,0-17.616-3.979T328.286,174.8q0-8.58,5.847-12.559T351.725,158.265Zm0,24.782a53.89,53.89,0,0,0,6.328-.312,11.22,11.22,0,0,0,4.194-1.222A5.363,5.363,0,0,0,364.572,179a12.594,12.594,0,0,0,0-8.389,5.244,5.244,0,0,0-2.325-2.492,11.584,11.584,0,0,0-4.194-1.2,64.524,64.524,0,0,0-12.655,0,11.578,11.578,0,0,0-4.194,1.2,5.239,5.239,0,0,0-2.325,2.492,12.594,12.594,0,0,0,0,8.389,5.358,5.358,0,0,0,2.325,2.516,11.215,11.215,0,0,0,4.194,1.222A53.883,53.883,0,0,0,351.725,183.047Z" transform="translate(-24.574 -158.265)"/></svg>