<svg id="Capa_1" data-name="Capa 1" xmlns="http://www.w3.org/2000/svg" viewBox="0 0 262.316 45.225"><defs><style>.cls-1{fill:#fff;}</style></defs><path class="cls-1" d="M126.856,213.718H113.373V196.833H87.324v16.885H73.711V169.933H87.324v15.512h26.049V169.933h13.483Z" transform="translate(-73.711 -169.213)"/><path class="cls-1" d="M165.8,169.213q15.968,0,23.986,5.432t8.018,17.148q0,11.781-7.985,17.213T165.8,214.439q-16.1,0-24.053-5.433t-7.951-17.213q0-11.715,7.984-17.148T165.8,169.213Zm0,33.837a73.874,73.874,0,0,0,8.639-.425,15.37,15.37,0,0,0,5.727-1.669,7.33,7.33,0,0,0,3.174-3.436,17.2,17.2,0,0,0,0-11.453,7.166,7.166,0,0,0-3.174-3.4,15.82,15.82,0,0,0-5.727-1.636,88.025,88.025,0,0,0-17.279,0,15.808,15.808,0,0,0-5.726,1.636,7.154,7.154,0,0,0-3.175,3.4,17.2,17.2,0,0,0,0,11.453,7.317,7.317,0,0,0,3.175,3.436,15.358,15.358,0,0,0,5.726,1.669A73.9,73.9,0,0,0,165.8,203.05Z" transform="translate(-73.711 -169.213)"/><path class="cls-1" d="M233.013,186.23q1.439,2.553,2.52,4.483t1.9,3.436q.817,1.507,1.441,2.749t1.21,2.421q.524-1.176,1.145-2.388t1.439-2.749q.82-1.537,1.9-3.436t2.52-4.45l7-12.436a10.143,10.143,0,0,1,2.977-3.37,7.559,7.559,0,0,1,4.484-1.277,7.747,7.747,0,0,1,4.614,1.473,8.255,8.255,0,0,1,2.979,4.548l11.06,38.484H266.72L262.6,198.469q-1.048-3.731-1.767-6.545t-1.244-5.5q-1.111,2.292-2.487,5.073t-3.6,7.036l-5.89,11a11.854,11.854,0,0,1-1.734,2.585,7.762,7.762,0,0,1-1.8,1.473,5.694,5.694,0,0,1-1.963.686,15.981,15.981,0,0,1-4.581,0,5.692,5.692,0,0,1-1.964-.686,7.694,7.694,0,0,1-1.8-1.473,11.678,11.678,0,0,1-1.735-2.585l-5.891-11.061q-1.177-2.225-2.095-3.993t-1.668-3.174q-.751-1.407-1.309-2.585c-.372-.785-.73-1.548-1.08-2.291q-.525,2.619-1.244,5.465t-1.7,6.578l-4.122,15.249H199.634l11.323-38.484a8.168,8.168,0,0,1,3.01-4.548,7.9,7.9,0,0,1,4.647-1.473,7.584,7.584,0,0,1,4.418,1.244,9.665,9.665,0,0,1,2.979,3.4Z" transform="translate(-73.711 -169.213)"/><path class="cls-1" d="M336.028,202.461l-8.705,11.257H285.175V169.933H335.9l-8.77,11.388H298.788v5.236h34.687l-7.787,9.948h-26.9v5.956Z" transform="translate(-73.711 -169.213)"/></svg>