<svg id="Capa_1" data-name="Capa 1" xmlns="http://www.w3.org/2000/svg" viewBox="0 0 193.5352 36.5322"><defs><style>.cls-1{fill:#fff;}</style></defs><path class="cls-1" d="M72.2886,129.001H62.3413v-13.64H43.123v13.64H33.0791V93.6323H43.123v12.53H62.3413v-12.53h9.9473Z" transform="translate(-33.0791 -93.0508)"/><path class="cls-1" d="M101.02,93.0508q11.781,0,17.6973,4.3882,5.9143,4.3886,5.915,13.8515,0,9.5157-5.8911,13.9038T101.02,129.583q-11.8783,0-17.7456-4.3887t-5.8672-13.9038q0-9.4629,5.8912-13.8515T101.02,93.0508Zm0,27.333a49.8144,49.8144,0,0,0,6.3741-.3438,10.6123,10.6123,0,0,0,4.2251-1.3481,5.7458,5.7458,0,0,0,2.3417-2.7759,15.135,15.135,0,0,0,0-9.2514,5.6158,5.6158,0,0,0-2.3417-2.75,10.9333,10.9333,0,0,0-4.2251-1.3212,49.8879,49.8879,0,0,0-6.3741-.3438,49.8818,49.8818,0,0,0-6.374.3438A10.9271,10.9271,0,0,0,90.42,103.915a5.6109,5.6109,0,0,0-2.3418,2.75,15.1271,15.1271,0,0,0,0,9.2514,5.7407,5.7407,0,0,0,2.3418,2.7759,10.6064,10.6064,0,0,0,4.2251,1.3481A49.8084,49.8084,0,0,0,101.02,120.3838Z" transform="translate(-33.0791 -93.0508)"/><path class="cls-1" d="M150.61,106.7964q1.062,2.0617,1.8593,3.6216t1.4,2.7754q.6036,1.2173,1.0625,2.2207t.8926,1.956q.3867-.9514.8457-1.93t1.0625-2.22q.6021-1.2422,1.4-2.7759.7954-1.5328,1.8584-3.5947l5.167-10.0449a8.0078,8.0078,0,0,1,2.1972-2.7227,5.2284,5.2284,0,0,1,3.3077-1.0312,5.3894,5.3894,0,0,1,3.4043,1.19,6.7335,6.7335,0,0,1,2.1972,3.6743l8.16,31.086h-9.9473l-3.042-12.3184q-.7734-3.0132-1.3037-5.2866t-.918-4.4409q-.82,1.8516-1.8349,4.0971-1.0137,2.2479-2.6553,5.6836l-4.3457,8.8819a9.6152,9.6152,0,0,1-1.28,2.0884,5.874,5.874,0,0,1-1.3271,1.1894,3.9863,3.9863,0,0,1-1.4492.5547,10.8192,10.8192,0,0,1-3.38,0,3.9684,3.9684,0,0,1-1.4483-.5547,5.86,5.86,0,0,1-1.3281-1.1894,9.581,9.581,0,0,1-1.2793-2.0884l-4.3467-8.9351q-.8686-1.7965-1.5449-3.2246t-1.2314-2.564q-.5551-1.1367-.9658-2.0883t-.7969-1.8506q-.3867,2.1152-.917,4.4145t-1.2559,5.313l-3.042,12.3184h-9.8022l8.354-31.086a6.6562,6.6562,0,0,1,2.2207-3.6743,5.4855,5.4855,0,0,1,3.4287-1.19,5.251,5.251,0,0,1,3.26,1.0049,7.6513,7.6513,0,0,1,2.1972,2.749Z" transform="translate(-33.0791 -93.0508)"/><path class="cls-1" d="M226.6143,119.9077l-6.4229,9.0933H189.0947V93.6323h37.4229l-6.4707,9.1992H199.1387v4.23h25.5918l-5.7461,8.0357H199.1387v4.811Z" transform="translate(-33.0791 -93.0508)"/></svg>