<svg id="Capa_1" data-name="Capa 1" xmlns="http://www.w3.org/2000/svg" viewBox="0 0 225.6416 83.8828"><defs><style>.cls-1{fill:#fff;}</style></defs><path class="cls-1" d="M72.3519,157.301a7.4071,7.4071,0,0,1,4.3115,1.05,3.6315,3.6315,0,0,1,1.4756,3.17,5.7917,5.7917,0,0,1-.3691,2.1211,3.759,3.759,0,0,1-1.1758,1.5908,5.6667,5.6667,0,0,1-2.0635.9912,11.4518,11.4518,0,0,1-3.0088.3457H57.1586l3.0664-3.9658H71.891a2.2746,2.2746,0,0,0,1.2451-.2646.9686.9686,0,0,0,.3916-.8643.9389.9389,0,0,0-.3916-.8535,2.3586,2.3586,0,0,0-1.2451-.2539H63.4994a9.1223,9.1223,0,0,1-2.583-.3223,5.1824,5.1824,0,0,1-1.7979-.8994,3.5346,3.5346,0,0,1-1.06-1.3945,4.608,4.608,0,0,1-.3457-1.81,4.9663,4.9663,0,0,1,.38-1.9717,3.8,3.8,0,0,1,1.1767-1.51,5.7786,5.7786,0,0,1,2.0518-.9687,11.4413,11.4413,0,0,1,3.0088-.3457H77.724l-3.0664,4.0117H63.96a2.5656,2.5656,0,0,0-1.2334.2305.8729.8729,0,0,0-.4033.83.9009.9009,0,0,0,.4033.8418,2.4609,2.4609,0,0,0,1.2334.2412Z" transform="translate(-11.9095 -82.9406)"/><path class="cls-1" d="M102.3461,151.1457l-9.1524,10.3291V166.57H88.3978v-5.1181l-9.4062-10.3057h6.1328l3.6885,4.2881q.1845.208.4843.542t.6221.7031q.3237.3692.6.6914t.3926.4844q.23-.3224.668-.876t1.2685-1.5674l3.5039-4.2656Z" transform="translate(-11.9095 -82.9406)"/><path class="cls-1" d="M116.8949,157.301a7.4036,7.4036,0,0,1,4.31,1.05,3.6315,3.6315,0,0,1,1.4756,3.17,5.8128,5.8128,0,0,1-.3681,2.1211,3.7672,3.7672,0,0,1-1.1758,1.5908,5.6826,5.6826,0,0,1-2.0635.9912,11.4518,11.4518,0,0,1-3.0088.3457H101.7015l3.0664-3.9658H116.434a2.2686,2.2686,0,0,0,1.2441-.2646.9669.9669,0,0,0,.3926-.8643.9373.9373,0,0,0-.3926-.8535,2.3523,2.3523,0,0,0-1.2441-.2539h-8.3926a9.12,9.12,0,0,1-2.5821-.3223,5.1651,5.1651,0,0,1-1.7978-.8994,3.5349,3.5349,0,0,1-1.0606-1.3945,4.5923,4.5923,0,0,1-.3466-1.81,4.9509,4.9509,0,0,1,.3808-1.9717,3.7978,3.7978,0,0,1,1.1758-1.51,5.7869,5.7869,0,0,1,2.0518-.9687,11.4518,11.4518,0,0,1,3.0088-.3457H122.266l-3.0654,4.0117H108.5023a2.5682,2.5682,0,0,0-1.2334.2305.8748.8748,0,0,0-.4033.83.9029.9029,0,0,0,.4033.8418,2.4635,2.4635,0,0,0,1.2334.2412Z" transform="translate(-11.9095 -82.9406)"/><path class="cls-1" d="M142.5775,151.1457l-3.09,4.0117h-5.51V166.57h-4.7715V155.1574h-7.24l3.09-4.0117Z" transform="translate(-11.9095 -82.9406)"/><path class="cls-1" d="M161.9437,162.6037l-3.0664,3.9658H144.03V151.1457h17.8681l-3.09,4.0117h-9.9824v1.8447h12.2187l-2.7432,3.5039h-9.4755v2.0977Z" transform="translate(-11.9095 -82.9406)"/><path class="cls-1" d="M174.2318,156.8869q.5069.8979.8877,1.5791.3809.68.6689,1.21t.5069.9687q.22.438.4267.8526.1847-.4146.4034-.8418t.5078-.9678q.2871-.5419.6679-1.21t.8877-1.5683l2.4668-4.38a3.5709,3.5709,0,0,1,1.0489-1.1875,2.6629,2.6629,0,0,1,1.58-.45,2.7259,2.7259,0,0,1,1.625.52,2.9065,2.9065,0,0,1,1.0489,1.6016l3.8964,13.5566h-4.749l-1.4531-5.372q-.3692-1.314-.6221-2.3057-.2548-.99-.4384-1.9365-.3927.8072-.876,1.7871t-1.2676,2.4785l-2.0752,3.873a4.1321,4.1321,0,0,1-.6113.9112,2.7349,2.7349,0,0,1-.6338.5185,2.021,2.021,0,0,1-.6914.2422,5.6841,5.6841,0,0,1-1.6143,0,2.0136,2.0136,0,0,1-.6914-.2422,2.7144,2.7144,0,0,1-.6338-.5185,4.1321,4.1321,0,0,1-.6113-.9112l-2.0752-3.8964q-.4146-.7837-.7373-1.4063t-.5879-1.1182q-.2651-.495-.4609-.91c-.1309-.2774-.2578-.5459-.3809-.8076q-.1845.9228-.4375,1.9257-.2549,1.002-.6,2.3165l-1.4521,5.372H162.474l3.9883-13.5566a2.88,2.88,0,0,1,1.06-1.6016,2.7791,2.7791,0,0,1,1.6377-.52,2.6718,2.6718,0,0,1,1.5557.4385,3.3978,3.3978,0,0,1,1.0488,1.1992Z" transform="translate(-11.9095 -82.9406)"/><path class="cls-1" d="M43.7992,109.9265q5.9517,0,9.0488,2.2016a7.623,7.623,0,0,1,3.0967,6.6538,12.171,12.171,0,0,1-.7734,4.4517,7.889,7.889,0,0,1-2.4678,3.3389,11.9209,11.9209,0,0,1-4.3311,2.08,24.0343,24.0343,0,0,1-6.3154.7261H11.9105l6.4356-8.3232H42.8314a4.7686,4.7686,0,0,0,2.6133-.5562,2.0315,2.0315,0,0,0,.8223-1.8149,1.97,1.97,0,0,0-.8223-1.79,4.9457,4.9457,0,0,0-2.6133-.5322H25.2181a19.0955,19.0955,0,0,1-5.42-.6777,10.8756,10.8756,0,0,1-3.7744-1.8873,7.4377,7.4377,0,0,1-2.2266-2.9277,9.669,9.669,0,0,1-.7256-3.7983,10.3989,10.3989,0,0,1,.7989-4.1372,7.9681,7.9681,0,0,1,2.4677-3.17,12.1567,12.1567,0,0,1,4.3067-2.0322,24.0232,24.0232,0,0,1,6.3144-.7256H55.0746l-6.4365,8.42H26.1859a5.3842,5.3842,0,0,0-2.5889.4839,1.8325,1.8325,0,0,0-.8476,1.7421,1.8876,1.8876,0,0,0,.8476,1.7662,5.1552,5.1552,0,0,0,2.5889.5083Z" transform="translate(-11.9095 -82.9406)"/><path class="cls-1" d="M97.7054,97.0065l-6.4843,8.42H79.6556v23.9531H69.639V105.426H54.4447l6.4844-8.4195Z" transform="translate(-11.9095 -82.9406)"/><path class="cls-1" d="M103.9476,125.508a5.3094,5.3094,0,0,1-2.0088-.3628,4.7334,4.7334,0,0,1-1.5234-.9678,4.2493,4.2493,0,0,1-.9678-1.3794,4.0457,4.0457,0,0,1-.3388-1.645,4.6965,4.6965,0,0,1,.4834-2.0327,5.7981,5.7981,0,0,1,1.5966-1.9355L124.5619,98.216a7.5735,7.5735,0,0,1,2.4433-1.355,7.249,7.249,0,0,1,2.1055-.3867,6.5544,6.5544,0,0,1,2.08.3384,4.6041,4.6041,0,0,1,1.7666,1.0644,5.3125,5.3125,0,0,1,1.21,1.8872,7.501,7.501,0,0,1,.459,2.7583V117.572H143.87l-5.8555,7.936h-3.3877v3.8711h-9.581V125.508Zm21.0977-12.7749q0-1.4517.0488-2.4194.047-.9677.1445-1.7906-1.1616,1.1616-3.5322,3.0972l-3.581,2.855q-1.3551,1.1133-2.3946,1.9111-1.0414.7983-1.96,1.3789,1.015-.0958,2.3711-.145,1.3535-.0476,3.1455-.0483h5.7578Z" transform="translate(-11.9095 -82.9406)"/><path class="cls-1" d="M193.13,129.3791H179.7259l-7.21-8.5649H157.1283v8.5649H147.1117V112.83h28.1621a7.4308,7.4308,0,0,0,3.92-.9678A2.9783,2.9783,0,0,0,180.79,109.2a3.1509,3.1509,0,0,0-1.4512-2.8306,7.4325,7.4325,0,0,0-4.0654-.9438H147.1117l6.5322-8.4195h20.8076a33.6941,33.6941,0,0,1,5.71.5078,17.4537,17.4537,0,0,1,5.3711,1.815,11.5271,11.5271,0,0,1,3.9922,3.5322,9.675,9.675,0,0,1,1.5732,5.71,10.9748,10.9748,0,0,1-.581,3.581,9.8383,9.8383,0,0,1-4.3311,5.3467,10.9069,10.9069,0,0,1-3.5566,1.3311,23.09,23.09,0,0,1,1.8388,1.5966q1.0167.9684,2.71,2.6617Z" transform="translate(-11.9095 -82.9406)"/><path class="cls-1" d="M237.5511,129.3791H222.4047l-9.7745-8.5166q-2.5166-2.1776-3.8466-3.3872-1.3315-1.2093-2.1534-2.0322.0469,1.1131.0967,2.2983.0469,1.1865.0479,2.3467v9.291H196.71V97.0065h10.0645v7.5q0,1.5007-.0479,2.9522t-.1455,2.71q.9682-.8709,2.3467-2.1534,1.38-1.281,3.6055-3.1211l9.3388-7.8872H236.39l-12.3877,9.2906q-1.5981,1.21-2.831,2.1294-1.2349.92-2.2022,1.5966t-1.7656,1.21q-.7983.5325-1.5733,1.0161,1.4034.9682,3.3877,2.4194t5.1289,4.0162Z" transform="translate(-11.9095 -82.9406)"/><rect class="cls-1" y="57.6377" width="225.6416" height="1.584"/><rect class="cls-1" width="225.6416" height="1.584"/></svg>