<svg id="Capa_1" data-name="Capa 1" xmlns="http://www.w3.org/2000/svg" viewBox="0 0 60 92.936"><defs><style>.cls-1,.cls-2{fill:#fff;}.cls-2{stroke:#fff;stroke-miterlimit:10;stroke-width:0.25px;}</style></defs><path class="cls-1" d="M87.367,101.379a6.426,6.426,0,0,1-.654-.028h0c-2.259,0-3.45-3.019-3.649-3.569a17.2,17.2,0,0,0-8.033-1.12h0a21.482,21.482,0,0,0-7.256,1.886c-.148.882-1.816,1.519-2.5,1.629a24.451,24.451,0,0,1-3.868.034c-.323-.013-.616-.025-.858-.031a18.448,18.448,0,0,1-3.45-1.242c-1.072-.444-2.182-.9-2.855-1.111a24.466,24.466,0,0,0-3.865-.774,16.007,16.007,0,0,1-3.961-.793,1.9,1.9,0,0,1-1.165-1.034c-.686-1.48.232-3.812.271-3.911a2.836,2.836,0,0,0,.11-2.685c-.04-.1-.079-.206-.113-.3-1.272-3.706.126-4.966,1.662-5.71a16,16,0,0,1,1.594-.6,12.232,12.232,0,0,0,2.292-.947,14.6,14.6,0,0,0,2.241-2.233C51.847,71.773,60.8,58.993,61.178,58.45l.051-.05c2.258-1.506,3.813-6.871,3.828-6.925.612-1.231.262-7.134-.007-10.089,0-7.77,1.448-8.943,4.009-10.349,7.912-4.344,11.589-1.828,14.272.01,5.579,3.821,4.059,19.073,3.992,19.72,0,1.2,4.765,7.359,6.6,9.627a22.82,22.82,0,0,1,5.164,19.131c.524.157,1.914.7,1.914,2.093,0,1.485,1.515,3.777,1.53,3.8,3.151,3.145,2.4,5.54,2.368,5.641-.786,1.575-7.159,4.464-7.868,4.781A11.359,11.359,0,0,1,87.367,101.379Zm-10.715-5.17a15.911,15.911,0,0,1,6.656,1.256l.072.036.026.077c.012.034,1.156,3.384,3.332,3.384a10.907,10.907,0,0,0,9.994-5.379l.031-.051.055-.025c1.939-.861,7.105-3.367,7.72-4.6h0s.68-2.257-2.308-5.245c-.089-.127-1.62-2.442-1.62-4.046,0-1.382-1.723-1.747-1.8-1.762l-.206-.042.056-.2a22.289,22.289,0,0,0-5.042-18.97c-.686-.848-6.688-8.309-6.688-9.9.018-.176,1.565-15.688-3.823-19.378-2.743-1.878-6.157-4.219-13.863.011-2.21,1.213-3.807,2.089-3.807,9.988.032.336.777,8.654-.02,10.248-.051.192-1.584,5.478-3.943,7.088-.488.7-9.256,13.424-7.764,20.136l.02.093-.06.073a15.418,15.418,0,0,1-2.388,2.384,12.117,12.117,0,0,1-2.38.99,16.1,16.1,0,0,0-1.55.586c-.977.474-2.795,1.354-1.464,5.232.033.1.07.192.108.291a3.187,3.187,0,0,1-.118,2.986c0,.008-.888,2.26-.272,3.587a1.506,1.506,0,0,0,.941.829,15.806,15.806,0,0,0,3.862.773,24.583,24.583,0,0,1,3.949.789c.69.213,1.808.676,2.888,1.124a20.333,20.333,0,0,0,3.312,1.212c.244.007.537.019.862.032a24.2,24.2,0,0,0,3.791-.029c.746-.121,2.18-.784,2.18-1.371V98.3l.106-.055A21.6,21.6,0,0,1,75,96.273h0C75.576,96.228,76.128,96.209,76.652,96.209Z" transform="translate(-45 -28.634)"/><path class="cls-1" d="M67.779,98.469l-.379-.095c.008-.03.755-3.074.015-4.554-.447-.619-4.508-6.3-4.7-7.074a14.462,14.462,0,0,0-2.041-3.768c-.349-.53-.71-1.079-1.062-1.648l-.107-.175a6.148,6.148,0,0,0-2.186-2.114c-.675-.487-1.337-.77-3.731.027L53.46,78.7c2.341-.779,3.211-.6,4.084.027a6.454,6.454,0,0,1,2.291,2.228l.106.173c.349.565.709,1.111,1.054,1.638a14.61,14.61,0,0,1,2.1,3.887,78.578,78.578,0,0,0,4.658,6.968C68.569,95.254,67.812,98.338,67.779,98.469Z" transform="translate(-45 -28.634)"/><path class="cls-1" d="M73.916,94.052a9.894,9.894,0,0,1-6.464-2.526,11.3,11.3,0,0,1-1.6-2.4l-.109-.217.236-.06a2.765,2.765,0,0,0,1.683-1.306,2.659,2.659,0,0,0-.247-2.324c-.008,0-3.1-3.838-5.358-4.592l-.075-.046c-.133-.13-3.237-3.206-3.948-4.746-1.168-2.529-2.029-6.678,3.938-13.5l.312.233c-.053.083-5.075,8.089-2.578,13.409.383-1.584,1.56-6.36,2.23-8.113.4-1.036.981-2.321,1.6-3.681,1.72-3.78,3.859-8.483,3.859-11.88v-.389l.313.232a36.232,36.232,0,0,0,4.622,3.094c.1.027.185.055.267.082.359.12.619.207,1.987-.084,2.053-.436,6.846-3.133,6.879-3.717l.059-1.035.322.975c.028.083,2.721,8.316,3.9,10.922.33.728.773,1.589,1.243,2.5a35.355,35.355,0,0,1,3.447,8.42.856.856,0,0,0,1.213-.005,10.669,10.669,0,0,0-3.854-11.461c-.142-.14-.528-.562-.4-.881.069-.167.242-.252.514-.252h.065l.053.039a15.822,15.822,0,0,1,5.56,13.321c.68.323,3.694,1.959,3.153,5.4h2.284v.391H96.507a2.646,2.646,0,0,0-1.265.7A6.563,6.563,0,0,1,91.036,82.2c-2.106,0-3-3.35-3.247-4.487l-1.3,1.3c-1.4,1.4-1.506,6.229-1.506,7.677a33.013,33.013,0,0,1-.787,3.955l-.02.079-.069.042a28.136,28.136,0,0,1-8.666,3.151c-.134.022-.267.042-.4.058A9.081,9.081,0,0,1,73.916,94.052Zm-7.608-4.893a10.1,10.1,0,0,0,1.42,2.09A9.4,9.4,0,0,0,74.991,93.6c.126-.015.254-.034.382-.056a27.691,27.691,0,0,0,8.46-3.06,31.991,31.991,0,0,0,.755-3.781c0-1.9.158-6.491,1.621-7.953l1.832-1.832.062.375c.007.045.781,4.526,2.933,4.526a6.227,6.227,0,0,0,3.97-1.571,3.417,3.417,0,0,1,1.336-.761c.618-3.6-3-5.092-3.034-5.107l-.135-.054.013-.145a15.04,15.04,0,0,0-2.092-9.207A11.561,11.561,0,0,1,92,73.474l-.047.076a1.188,1.188,0,0,1-1.275.341,1.616,1.616,0,0,1-.565-.341l-.041-.042-.012-.058a34.784,34.784,0,0,0-3.425-8.38c-.471-.917-.917-1.782-1.25-2.519C84.352,60.263,82.169,53.7,81.606,52c-1.084,1.22-5.441,3.311-6.942,3.63-1.474.312-1.79.206-2.192.072-.074-.024-.152-.051-.243-.075a33.222,33.222,0,0,1-4.452-2.934c-.147,3.442-2.214,7.985-3.886,11.661-.616,1.354-1.2,2.634-1.59,3.659-.781,2.045-2.321,8.507-2.337,8.572l-.114.481-.245-.429c-2.278-3.986-.149-9.488,1.289-12.36-4.3,5.656-3.529,9.182-2.506,11.4.645,1.4,3.5,4.268,3.837,4.6,2.365.823,5.389,4.578,5.517,4.738a3.044,3.044,0,0,1,.274,2.7A2.989,2.989,0,0,1,66.308,89.159ZM87.846,61.105a.213.213,0,0,0-.1.023,1.38,1.38,0,0,0,.3.423,11.472,11.472,0,0,1,2.193,2.133A14.305,14.305,0,0,0,87.846,61.105Z" transform="translate(-45 -28.634)"/><path class="cls-1" d="M91.036,81.423c-1.675,0-2.453-3.649-2.536-4.065l0-.038a2.014,2.014,0,0,1,.791-1.794c1.195-.81,3.3.014,3.385.049a3.343,3.343,0,0,1,2.262,1.5,2.505,2.505,0,0,1,.2,1.867C94.313,81.4,91.17,81.423,91.036,81.423ZM88.887,77.3c.214,1.056,1.006,3.731,2.149,3.731.03,0,3-.03,3.722-2.211a2.141,2.141,0,0,0-.169-1.56,3.019,3.019,0,0,0-2.037-1.315c-.045-.015-2.023-.79-3.047-.1A1.641,1.641,0,0,0,88.887,77.3Z" transform="translate(-45 -28.634)"/><path class="cls-1" d="M83.416,97.64h-.391c0-.648.024-6.357.839-7.172l.276.276C83.613,91.272,83.416,95.254,83.416,97.64Z" transform="translate(-45 -28.634)"/><path class="cls-1" d="M81.014,52.448l-.276-.276a3.349,3.349,0,0,0,0-3.631,16.787,16.787,0,0,0-6.114-3.069H72.279c-.49,0-3.421,2.258-5.346,3.862-.532.533.437,2.294.819,2.868l-.325.217c-.169-.254-1.627-2.5-.757-3.373.8-.672,4.8-3.965,5.609-3.965h2.345a16.92,16.92,0,0,1,6.39,3.183A3.715,3.715,0,0,1,81.014,52.448Z" transform="translate(-45 -28.634)"/><path class="cls-1" d="M73.254,53.416c-.44,0-.913-.027-.993-.032h0c-2.42,0-4.78-2.331-4.879-2.43a.293.293,0,0,1,.415-.414c.022.022,2.289,2.259,4.482,2.259a10.438,10.438,0,0,0,1.51,0c1.754-.318,5.857-2.263,6.014-2.851a.286.286,0,0,1,.292-.286.3.3,0,0,1,.293.3c0,1.126-5.081,3.158-6.493,3.414A4.145,4.145,0,0,1,73.254,53.416Z" transform="translate(-45 -28.634)"/><path class="cls-1" d="M68.371,47.816a.2.2,0,0,1-.152-.073c-.032-.04-3.2-4.081.014-7.294a1.712,1.712,0,0,1,1.615-.48,2.893,2.893,0,0,1,1.835,2.119,13.943,13.943,0,0,1,.791,3.188.2.2,0,1,1-.39,0,13.771,13.771,0,0,0-.772-3.064c-.349-1.047-.9-1.709-1.554-1.863a1.334,1.334,0,0,0-1.249.376c-2.968,2.968-.016,6.736.015,6.774a.195.195,0,0,1-.153.317Z" transform="translate(-45 -28.634)"/><path class="cls-1" d="M69.283,47.4a.2.2,0,0,1-.144-.063c-.106-.116-2.582-2.868-.906-4.544a1,1,0,0,1,1.015-.344c1.157.343,1.792,3.193,1.86,3.517a.2.2,0,0,1-.15.232.192.192,0,0,1-.231-.151c-.174-.817-.8-2.988-1.589-3.223a.636.636,0,0,0-.629.246c-1.412,1.412.895,3.977.919,4a.2.2,0,0,1-.013.276A.191.191,0,0,1,69.283,47.4Z" transform="translate(-45 -28.634)"/><path class="cls-1" d="M80.1,47.816a.2.2,0,0,1-.139-.333,4.962,4.962,0,0,0,.745-6.027C79.974,40,78.514,40,76.968,40c-2.128,0-2.283,5.227-2.285,5.28a.194.194,0,0,1-.2.191.2.2,0,0,1-.191-.2c.007-.231.17-5.661,2.676-5.661,1.6,0,3.247,0,4.083,1.671a5.416,5.416,0,0,1-.818,6.478A.2.2,0,0,1,80.1,47.816Z" transform="translate(-45 -28.634)"/><path class="cls-1" d="M78.967,47.263a.21.21,0,0,1-.043,0,.2.2,0,0,1-.148-.234c.008-.032.711-3.161-.192-4.294a1,1,0,0,0-.834-.385c-1.125,0-1.44,2.429-1.467,3.365a.2.2,0,0,1-.2.19.2.2,0,0,1-.19-.2c.005-.153.125-3.744,1.858-3.744a1.384,1.384,0,0,1,1.139.532c1.02,1.28.3,4.488.269,4.624A.2.2,0,0,1,78.967,47.263Z" transform="translate(-45 -28.634)"/><path class="cls-2" d="M58.4,120.83H45.445v-.26a1.617,1.617,0,0,0,.622-.116,1.54,1.54,0,0,0,.686-.416,1.317,1.317,0,0,0,.246-.895v-14.27a1.319,1.319,0,0,0-.246-.9,1.547,1.547,0,0,0-.686-.415,1.645,1.645,0,0,0-.622-.117v-.26h5.181v.26a1.337,1.337,0,0,0-.713.117,1.228,1.228,0,0,0-.583.4,1.6,1.6,0,0,0-.258.908v14.142a.738.738,0,0,0,.22.6.853.853,0,0,0,.557.18h4.145a4.418,4.418,0,0,0,2.824-.647,4.883,4.883,0,0,0,1.218-2.047,5.277,5.277,0,0,0,.363-1.451Z" transform="translate(-45 -28.634)"/><path class="cls-2" d="M65.134,120.83H60.989v-.259a1.377,1.377,0,0,0,1.037-.518,1.326,1.326,0,0,0,.259-.907V110.6H60.471l3.368-1.555v10.1a1.6,1.6,0,0,0,.259.907,1.187,1.187,0,0,0,1.036.518Zm-2.06-13.473c-.526,0-.789-.249-.789-.751,0-.535.254-.8.765-.8a.692.692,0,0,1,.789.777A.681.681,0,0,1,63.074,107.357Z" transform="translate(-45 -28.634)"/><path class="cls-2" d="M78.607,120.83H74.462v-.259a1.375,1.375,0,0,0,1.036-.518,1.321,1.321,0,0,0,.259-.907V112.8a3.052,3.052,0,0,0-.856-2.24,2.857,2.857,0,0,0-2.124-.868q-2.979,0-2.978,2.927v6.529a1.6,1.6,0,0,0,.258.907,1.187,1.187,0,0,0,1.036.518v.259H66.949v-.259a1.372,1.372,0,0,0,1.035-.518,1.321,1.321,0,0,0,.259-.907V110.6H66.43l3.369-1.555v1.684a3.889,3.889,0,0,1,2.978-1.684,4.559,4.559,0,0,1,3.135.829,3.429,3.429,0,0,1,1.4,2.927v6.348a1.589,1.589,0,0,0,.26.907,1.185,1.185,0,0,0,1.036.518Z" transform="translate(-45 -28.634)"/><path class="cls-2" d="M92.079,119.3l-3.368,2.047v-2.513a3.5,3.5,0,0,1-3.239,2.513,3.333,3.333,0,0,1-2.863-1.062,4.482,4.482,0,0,1-1.152-3.213v-5.958a1.374,1.374,0,0,0-.273-.765,2.2,2.2,0,0,0-1.282-.66v-.26h3.109v7.643a4.315,4.315,0,0,0,.622,2.436,2.04,2.04,0,0,0,1.839,1.062,3.1,3.1,0,0,0,2.293-.958,3.263,3.263,0,0,0,.946-2.384v-6.114a1.318,1.318,0,0,0-.259-.778,1.626,1.626,0,0,0-.726-.466,2.539,2.539,0,0,0-.569-.181v-.26h3.108v9.845Z" transform="translate(-45 -28.634)"/><path class="cls-2" d="M103.478,120.83h-3.109v-.518h.778l-3.035-4.572-3.381,4.572h1.493v.518h-2.85v-.518h.777l3.692-4.992-3.684-5.377-.785.006v-.519h3.109v.519h-.777l2.953,4.274,3.265-4.274h-1.3v-.519h2.85v.519h-1.035l-3.526,4.66,3.784,5.7h.777Z" transform="translate(-45 -28.634)"/></svg>