<svg id="Capa_1" data-name="Capa 1" xmlns="http://www.w3.org/2000/svg" viewBox="0 0 233.8882 79.7236"><defs><style>.cls-1{fill:#fff;}</style></defs><path class="cls-1" d="M112.9166,155.3493a7.3046,7.3046,0,0,1,4.2539,1.0352,3.5839,3.5839,0,0,1,1.4556,3.1279,5.7272,5.7272,0,0,1-.3638,2.0928,3.7048,3.7048,0,0,1-1.16,1.5693,5.6011,5.6011,0,0,1-2.0362.9785,11.2889,11.2889,0,0,1-2.9682.3408H97.9259l3.0254-3.9121h11.51a2.2482,2.2482,0,0,0,1.2286-.2617.9558.9558,0,0,0,.3867-.8535.9257.9257,0,0,0-.3867-.8418,2.3347,2.3347,0,0,0-1.2286-.25h-8.28a8.9622,8.9622,0,0,1-2.5479-.3184,5.0993,5.0993,0,0,1-1.7744-.8877,3.4876,3.4876,0,0,1-1.0464-1.3759,4.5383,4.5383,0,0,1-.3413-1.7852,4.8854,4.8854,0,0,1,.3755-1.9453,3.7456,3.7456,0,0,1,1.16-1.49,5.7137,5.7137,0,0,1,2.0245-.9551,11.2876,11.2876,0,0,1,2.9687-.3408h13.2163l-3.0254,3.958H104.6363a2.53,2.53,0,0,0-1.2168.2275.8605.8605,0,0,0-.3979.8184.8871.8871,0,0,0,.3979.83,2.4245,2.4245,0,0,0,1.2168.2393Z" transform="translate(-7.7862 -85.0202)"/><path class="cls-1" d="M142.5109,149.2761l-9.0308,10.19v5.0273h-4.7315v-5.05l-9.2807-10.1679h6.0508l3.64,4.23q.1817.2052.4776.5352t.6142.6933q.3186.3648.5913.6827t.3867.4775q.2271-.3178.66-.8643t1.2515-1.5468l3.4575-4.208Z" transform="translate(-7.7862 -85.0202)"/><path class="cls-1" d="M156.8653,155.3493a7.3051,7.3051,0,0,1,4.254,1.0352,3.5838,3.5838,0,0,1,1.4555,3.1279,5.7272,5.7272,0,0,1-.3638,2.0928,3.7032,3.7032,0,0,1-1.16,1.5693,5.6014,5.6014,0,0,1-2.0361.9785,11.29,11.29,0,0,1-2.9683.3408H141.8746l3.0254-3.9121h11.51a2.2481,2.2481,0,0,0,1.2285-.2617.9558.9558,0,0,0,.3867-.8535.9257.9257,0,0,0-.3867-.8418,2.3346,2.3346,0,0,0-1.2285-.25h-8.28a8.9626,8.9626,0,0,1-2.5479-.3184,5.0993,5.0993,0,0,1-1.7744-.8877,3.4885,3.4885,0,0,1-1.0464-1.3759,4.5383,4.5383,0,0,1-.3413-1.7852,4.8854,4.8854,0,0,1,.3755-1.9453,3.745,3.745,0,0,1,1.16-1.49,5.7123,5.7123,0,0,1,2.0244-.9551,11.2882,11.2882,0,0,1,2.9687-.3408h13.2163l-3.0254,3.958H148.5851a2.53,2.53,0,0,0-1.2168.2275.8606.8606,0,0,0-.398.8184.8871.8871,0,0,0,.398.83,2.4243,2.4243,0,0,0,1.2168.2393Z" transform="translate(-7.7862 -85.0202)"/><path class="cls-1" d="M182.2062,149.2761l-3.0484,3.958h-5.4365v11.26h-4.709v-11.26H161.87l3.0484-3.958Z" transform="translate(-7.7862 -85.0202)"/><path class="cls-1" d="M201.3136,160.5817l-3.0254,3.9121H183.6388V149.2761h17.6294l-3.0484,3.958h-9.85v1.8193h12.0562l-2.707,3.458H188.37v2.07Z" transform="translate(-7.7862 -85.0202)"/><path class="cls-1" d="M213.4386,154.94q.501.8862.875,1.5576t.66,1.1944q.2842.5244.5.956l.4219.8409q.1816-.4088.3965-.83.2167-.42.502-.9551t.6582-1.1943q.3778-.6593.8769-1.5469l2.4336-4.3223a3.5152,3.5152,0,0,1,1.0352-1.1709,2.6218,2.6218,0,0,1,1.5586-.4443,2.697,2.697,0,0,1,1.6035.5117,2.88,2.88,0,0,1,1.0351,1.5811l3.8438,13.3759h-4.6856l-1.4336-5.3q-.3631-1.2978-.6132-2.2754-.252-.9769-.4336-1.91-.3867.7955-.8633,1.7627t-1.252,2.4453l-2.0468,3.8213a4.0613,4.0613,0,0,1-.6036.8984,2.62,2.62,0,0,1-.625.5117,1.972,1.972,0,0,1-.6816.2393,5.6383,5.6383,0,0,1-1.5938,0,1.9727,1.9727,0,0,1-.6816-.2393,2.66,2.66,0,0,1-.625-.5117,4.0613,4.0613,0,0,1-.6035-.8984L211.05,159.194q-.41-.7734-.7285-1.3877t-.58-1.1035q-.2607-.4891-.4551-.8984c-.1289-.2735-.2539-.5381-.375-.7959q-.1815.91-.4316,1.8994-.252.9888-.5918,2.2861l-1.4336,5.3H201.837l3.9356-13.3759a2.833,2.833,0,0,1,1.0468-1.5811,2.7453,2.7453,0,0,1,1.6153-.5117,2.6394,2.6394,0,0,1,1.5351.4326,3.3775,3.3775,0,0,1,1.0352,1.1826Z" transform="translate(-7.7862 -85.0202)"/><path class="cls-1" d="M122.923,108.9621l-5.3662,6.9678H107.986v19.8227h-8.29V115.93H87.1222l5.3662-6.9678Z" transform="translate(-7.7862 -85.0202)"/><path class="cls-1" d="M128.089,132.5485a4.386,4.386,0,0,1-1.6621-.3,3.9083,3.9083,0,0,1-1.2613-.8008,3.5318,3.5318,0,0,1-.8012-1.1416,3.3551,3.3551,0,0,1-.28-1.3613,3.873,3.873,0,0,1,.4009-1.6816,4.7947,4.7947,0,0,1,1.3213-1.6026l19.3418-15.6977a6.266,6.266,0,0,1,2.0224-1.1211,5.9933,5.9933,0,0,1,1.7422-.32,5.4216,5.4216,0,0,1,1.7217.28,3.8113,3.8113,0,0,1,1.4619.8809,4.3894,4.3894,0,0,1,1.001,1.562,6.1958,6.1958,0,0,1,.38,2.2827v12.4536h7.6489l-4.8457,6.5674h-2.8032v3.2041h-7.9292v-3.2041Zm17.4595-10.5713q0-1.201.04-2.0029.04-.8.1206-1.4814-.9616.9609-2.9233,2.5634l-2.9634,2.3623q-1.1222.9214-1.9824,1.5821t-1.6221,1.1406q.8415-.079,1.9624-.12t2.603-.04h4.7652Z" transform="translate(-7.7862 -85.0202)"/><path class="cls-1" d="M201.8922,135.7526H190.8l-5.9668-7.0879H172.0987v7.0879h-8.29V122.0573h23.3066a6.1508,6.1508,0,0,0,3.2437-.8008,2.4665,2.4665,0,0,0,1.3213-2.2031,2.6076,2.6076,0,0,0-1.2012-2.3423,6.15,6.15,0,0,0-3.3638-.7812H163.8092l5.4062-6.9678h17.2193a27.8547,27.8547,0,0,1,4.7256.42,14.4483,14.4483,0,0,1,4.4448,1.502,9.5409,9.5409,0,0,1,3.3037,2.9233,8.0014,8.0014,0,0,1,1.3018,4.7251,9.0757,9.0757,0,0,1-.4805,2.9639,8.1418,8.1418,0,0,1-3.5845,4.4248,9.0394,9.0394,0,0,1-2.9429,1.1015,18.8254,18.8254,0,0,1,1.5215,1.3213q.8409.8013,2.2427,2.2022Z" transform="translate(-7.7862 -85.0202)"/><path class="cls-1" d="M238.6534,135.7526H226.1193l-8.0889-7.0478q-2.0831-1.8018-3.1836-2.8037-1.1031-1.0005-1.7822-1.6817.0394.9215.08,1.9024t.04,1.9424v7.6884h-8.33v-26.79h8.33v6.207q0,1.2423-.04,2.4429t-.12,2.2422q.8-.7208,1.9424-1.7817t2.9834-2.5831l7.7285-6.5273h12.0137l-10.252,7.689q-1.3212,1.0011-2.3427,1.7617t-1.8223,1.3222q-.8013.5611-1.4609,1.001t-1.3018.8408q1.1616.8013,2.8027,2.002t4.2452,3.3242Z" transform="translate(-7.7862 -85.0202)"/><path class="cls-1" d="M40.6349,124.9577q-6.2015,0-9.2237-3.9531a8.8462,8.8462,0,0,1,1.2207-12.0532,11.6784,11.6784,0,0,1,8.003-2.6739H61.5626l-1.9766,6.5493H40.7125a3.0812,3.0812,0,0,0-3.1391,1.7442,2.7321,2.7321,0,0,0-.233,1.0849,2.5579,2.5579,0,0,0,1.628,2.4415,4.1969,4.1969,0,0,0,1.7441.3491H51.3312q5.93,0,8.9912,3.7983a8.6765,8.6765,0,0,1,1.938,5.542,8.46,8.46,0,0,1-3.023,6.665,11.5937,11.5937,0,0,1-7.9062,2.6358H29.59l1.9765-6.55H51.2535q2.4031,0,3.1392-1.7051a2.4624,2.4624,0,0,0,.2329-1.0459,2.5669,2.5669,0,0,0-1.55-2.4424,4.192,4.192,0,0,0-1.8218-.3867Z" transform="translate(-7.7862 -85.0202)"/><path class="cls-1" d="M45.7706,161.8517A38.4325,38.4325,0,0,1,8.6378,133.3063l8.2647-2.1894a29.8992,29.8992,0,0,0,39.73,20.1494l3.1026,7.9668A38.3186,38.3186,0,0,1,45.7706,161.8517ZM72.9347,150.6l-6.1162-5.9756.07-.07a29.8676,29.8676,0,0,0,0-42.2373,30.4519,30.4519,0,0,0-2.4995-2.2368l5.3388-6.6778a39.0059,39.0059,0,0,1,3.2056,2.8687,38.4175,38.4175,0,0,1,.001,54.3291ZM16.24,118.9514,7.7862,117.676A38.4208,38.4208,0,0,1,45.77,85.02a38.5826,38.5826,0,0,1,9.9756,1.312L53.5328,94.591A30.0176,30.0176,0,0,0,45.77,93.57,29.8723,29.8723,0,0,0,16.24,118.9514Z" transform="translate(-7.7862 -85.0202)"/><rect class="cls-1" x="65.7441" y="60.0005" width="168.144" height="1.3105"/><rect class="cls-1" x="61.6411" y="12.3018" width="172.2471" height="1.3105"/></svg>