<svg id="Capa_1" data-name="Capa 1" xmlns="http://www.w3.org/2000/svg" viewBox="0 0 116.565 125.767"><defs><style>.cls-1{fill:#fff;}</style></defs><path class="cls-1" d="M97.687,48.784H92.736a6.565,6.565,0,0,1-6.558-6.557V31.556a6.549,6.549,0,0,1,6.541-6.541h17.794V22.94H98.345V18.324a5.767,5.767,0,0,1,5.76-5.76h11.873a5.483,5.483,0,0,1,5.477,5.477V31.254c0,2.181-1.778,4.844-3.853,4.844H101.143a4.082,4.082,0,0,0-2.918.88,2.264,2.264,0,0,0-.608,1.679Zm-4.968-23.3a6.077,6.077,0,0,0-6.069,6.07V42.227a6.092,6.092,0,0,0,6.086,6.085h4.476l-.067-9.651a2.719,2.719,0,0,1,.745-2.015,4.458,4.458,0,0,1,3.253-1.02H117.6c1.789,0,3.381-2.445,3.381-4.372V18.041a5.01,5.01,0,0,0-5.005-5.005H104.105a5.294,5.294,0,0,0-5.288,5.288v4.144h12.168v3.018Z" transform="translate(-17.435 -12.564)"/><path class="cls-1" d="M116.072,60.48H104.2A5.483,5.483,0,0,1,98.723,55V41.79c0-2.18,1.778-4.844,3.853-4.844h16.459a4.082,4.082,0,0,0,2.918-.88,2.268,2.268,0,0,0,.608-1.679l-.07-10.127h4.951A6.565,6.565,0,0,1,134,30.817V41.488a6.55,6.55,0,0,1-6.541,6.542h-17.8v2.075h12.168V54.72A5.767,5.767,0,0,1,116.072,60.48Zm-13.5-23.062c-1.789,0-3.381,2.445-3.381,4.372V55a5.01,5.01,0,0,0,5.005,5.005h11.872a5.3,5.3,0,0,0,5.289-5.288V50.576H109.192V47.558h18.267a6.077,6.077,0,0,0,6.069-6.07V30.817a6.092,6.092,0,0,0-6.086-6.085h-4.476l.067,9.652a2.719,2.719,0,0,1-.746,2.014,4.455,4.455,0,0,1-3.252,1.02Z" transform="translate(-17.435 -12.564)"/><path class="cls-1" d="M103.816,20.44a2.406,2.406,0,1,1,2.406-2.405A2.408,2.408,0,0,1,103.816,20.44Zm0-4.339a1.934,1.934,0,1,0,1.934,1.934A1.935,1.935,0,0,0,103.816,16.1Z" transform="translate(-17.435 -12.564)"/><path class="cls-1" d="M117.022,57.037a2.405,2.405,0,1,1,2.405-2.405A2.409,2.409,0,0,1,117.022,57.037Zm0-4.338a1.934,1.934,0,1,0,1.933,1.933A1.936,1.936,0,0,0,117.022,52.7Z" transform="translate(-17.435 -12.564)"/><path class="cls-1" d="M91.734,69.881h3.2a2.5,2.5,0,0,1,2.771,2.6,2.559,2.559,0,0,1-2.86,2.664H92.439V79.2h-.7Zm.7,4.595h2.475a1.8,1.8,0,0,0,2.052-1.971,1.829,1.829,0,0,0-2-1.957H92.439Z" transform="translate(-17.435 -12.564)"/><path class="cls-1" d="M99.6,72.545c1.3,3.808,1.86,5.38,2.078,6.1h.012c.257-.812.77-2.357,2.014-6.1h.667l-2.411,7.045c-.68,1.971-1.141,2.41-2.3,2.41a4.064,4.064,0,0,1-.59-.04v-.666a4.011,4.011,0,0,0,.577.04c.924,0,1.218-.466,1.693-1.837l-2.449-6.952Z" transform="translate(-17.435 -12.564)"/><path class="cls-1" d="M105.1,72.545h1.192V70.467h.641v2.078h1.526v.626h-1.526V77.5c0,.746.154,1.172.77,1.172a2.326,2.326,0,0,0,.667-.08v.586a2.18,2.18,0,0,1-.8.12c-.821,0-1.283-.427-1.283-1.492V73.171H105.1Z" transform="translate(-17.435 -12.564)"/><path class="cls-1" d="M110.37,69.389v4.275a2.227,2.227,0,0,1,2.116-1.279c.91,0,2.167.479,2.167,2.584V79.2h-.641V75.1c0-1.319-.577-2.064-1.642-2.064-1.269,0-2,.812-2,2.45V79.2h-.642V69.389Z" transform="translate(-17.435 -12.564)"/><path class="cls-1" d="M121.952,75.861c0,1.851-.988,3.5-2.9,3.5-1.731,0-2.808-1.478-2.808-3.489,0-1.9,1.013-3.489,2.872-3.489C120.823,72.385,121.952,73.77,121.952,75.861Zm-5.027.013c0,1.585.82,2.863,2.18,2.863,1.385,0,2.167-1.185,2.167-2.863,0-1.571-.77-2.863-2.193-2.863C117.617,73.011,116.925,74.276,116.925,75.874Z" transform="translate(-17.435 -12.564)"/><path class="cls-1" d="M123.542,74.223c0-.586,0-1.145-.012-1.678h.628c.026.213.038,1.079.026,1.265a2.1,2.1,0,0,1,2.129-1.425c1.141,0,2.154.666,2.154,2.5V79.2h-.641V75c0-1.185-.475-1.957-1.59-1.957-1.527,0-2.052,1.318-2.052,2.769v3.4h-.642Z" transform="translate(-17.435 -12.564)"/><path class="cls-1" d="M77.4,85.559l-26.9-16.837a3.924,3.924,0,0,0-4.016.011L18.655,85.74a2.64,2.64,0,0,0-1.22,2.231v30.856a2.832,2.832,0,0,0,1.429,2.463l27.857,16.577a3.516,3.516,0,0,0,1.756.463,3.58,3.58,0,0,0,1.8-.485l27.292-15.962a2.9,2.9,0,0,0,1.435-2.5v-31A3.3,3.3,0,0,0,77.4,85.559Zm.468,33.822A1.767,1.767,0,0,1,77,120.906L49.7,136.867a2.416,2.416,0,0,1-2.418.023L19.429,120.318a1.725,1.725,0,0,1-.865-1.491V87.971a1.513,1.513,0,0,1,.689-1.276l27.823-17a2.787,2.787,0,0,1,2.842-.011l26.9,16.837a2.171,2.171,0,0,1,1.056,1.853Z" transform="translate(-17.435 -12.564)"/><path class="cls-1" d="M65.715,113.026l-1.92,2.61a18.968,18.968,0,0,1-6.913,5.806,20.321,20.321,0,0,1-9.116,2.039c-6.372,0-11.506-2.327-15.245-6.924a21.223,21.223,0,0,1-4.631-13.709A19.967,19.967,0,0,1,33.532,88.5a18.98,18.98,0,0,1,14.194-5.908A19.779,19.779,0,0,1,57,84.774a18.636,18.636,0,0,1,6.874,6.151l1.734,2.559-7.591,6.207-2.107-2.92a9.579,9.579,0,0,0-8.144-4.2,9.793,9.793,0,0,0-8.591,5.106,11.2,11.2,0,0,0-1.3,5.461,10.369,10.369,0,0,0,2.88,7.563,9.462,9.462,0,0,0,7.2,2.937,9.918,9.918,0,0,0,8.071-4.083l2.13-2.644Z" transform="translate(-17.435 -12.564)"/><path class="cls-1" d="M72.092,104.232v-2h2.1V99.968h-2.1V97.217H69.85v2.751H67.732V97.217H65.49v2.751H62.8v2.265H65.49v2H62.7V106.5h2.807l.057,3.225h2.242l-.056-3.225h2.1v3.395h2.242V106.5h2.7v-2.265Zm-2.242-2v2H67.732v-2Z" transform="translate(-17.435 -12.564)"/></svg>