<svg id="Capa_1" data-name="Capa 1" xmlns="http://www.w3.org/2000/svg" viewBox="0 0 54.774 58.321"><defs><style>.cls-1{fill:#fff;}</style></defs><path class="cls-1" d="M59.078,13.848,50.03,8.184a1.318,1.318,0,0,0-1.35,0l-9.363,5.72a.891.891,0,0,0-.41.751V25.038a.952.952,0,0,0,.48.828l9.371,5.576a1.176,1.176,0,0,0,.59.156,1.21,1.21,0,0,0,.605-.163l9.18-5.369a.978.978,0,0,0,.482-.842V14.8A1.107,1.107,0,0,0,59.078,13.848Zm.157,11.376a.6.6,0,0,1-.294.513l-9.18,5.369a.812.812,0,0,1-.813.007l-9.371-5.574a.579.579,0,0,1-.29-.5V14.659a.51.51,0,0,1,.232-.43l9.358-5.716a.938.938,0,0,1,.956,0l9.047,5.663a.731.731,0,0,1,.355.624Z" transform="translate(-10.226 -8)"/><path class="cls-1" d="M55.147,23.087l-.646.877a6.379,6.379,0,0,1-2.326,1.953,6.834,6.834,0,0,1-3.066.686,6.292,6.292,0,0,1-5.128-2.329,7.143,7.143,0,0,1-1.558-4.611,6.721,6.721,0,0,1,1.9-4.828A6.386,6.386,0,0,1,49.1,12.848a6.652,6.652,0,0,1,3.119.735,6.274,6.274,0,0,1,2.312,2.069l.584.861L52.557,18.6l-.708-.982a3.227,3.227,0,0,0-2.74-1.414,3.18,3.18,0,0,0-1.685.466,3.214,3.214,0,0,0-1.2,1.252,3.774,3.774,0,0,0-.437,1.837,3.493,3.493,0,0,0,.969,2.544,3.185,3.185,0,0,0,2.421.988,3.337,3.337,0,0,0,2.715-1.374l.716-.889Z" transform="translate(-10.226 -8)"/><path class="cls-1" d="M57.292,20.128v-.672H58v-.762h-.7v-.925h-.755v.925h-.712v-.925h-.754v.925h-.906v.762h.906v.672h-.939v.762h.945l.019,1.085h.754l-.019-1.085h.706v1.142h.755V20.89H58.2v-.762Zm-.755-.672v.672h-.712v-.672Z" transform="translate(-10.226 -8)"/><path class="cls-1" d="M18.791,40.272H17.043a2.318,2.318,0,0,1-2.316-2.315V34.189a2.313,2.313,0,0,1,2.31-2.31H23.32v-.732h-4.3v-1.63a2.036,2.036,0,0,1,2.033-2.034h4.192a1.936,1.936,0,0,1,1.934,1.934v4.665c0,.77-.627,1.71-1.36,1.71H20.011a1.442,1.442,0,0,0-1.03.311.8.8,0,0,0-.214.593Zm-1.754-8.226a2.146,2.146,0,0,0-2.143,2.143v3.768A2.151,2.151,0,0,0,17.043,40.1h1.58L18.6,36.7a.962.962,0,0,1,.263-.711,1.573,1.573,0,0,1,1.148-.36h5.812c.632,0,1.194-.863,1.194-1.544V29.417a1.769,1.769,0,0,0-1.768-1.767H21.057a1.869,1.869,0,0,0-1.867,1.867V30.98h4.3v1.066Z" transform="translate(-10.226 -8)"/><path class="cls-1" d="M25.283,44.4H21.091a1.936,1.936,0,0,1-1.934-1.934V37.8c0-.769.628-1.71,1.36-1.71h5.812a1.438,1.438,0,0,0,1.03-.311.8.8,0,0,0,.215-.593l-.025-3.575H29.3a2.318,2.318,0,0,1,2.316,2.315V37.7a2.313,2.313,0,0,1-2.31,2.31H23.02v.732h4.3v1.63A2.037,2.037,0,0,1,25.283,44.4Zm-4.766-8.143c-.631,0-1.194.863-1.194,1.543v4.666a1.77,1.77,0,0,0,1.768,1.767h4.192a1.87,1.87,0,0,0,1.867-1.867V40.905h-4.3V39.839H29.3A2.145,2.145,0,0,0,31.446,37.7V33.928A2.151,2.151,0,0,0,29.3,31.779h-1.58l.023,3.408a.958.958,0,0,1-.263.712,1.572,1.572,0,0,1-1.148.36Z" transform="translate(-10.226 -8)"/><path class="cls-1" d="M20.955,30.264a.85.85,0,1,1,.85-.849A.85.85,0,0,1,20.955,30.264Zm0-1.532a.683.683,0,1,0,.683.683A.683.683,0,0,0,20.955,28.732Z" transform="translate(-10.226 -8)"/><path class="cls-1" d="M25.618,43.186a.85.85,0,1,1,.849-.849A.85.85,0,0,1,25.618,43.186Zm0-1.532a.683.683,0,1,0,.683.683A.684.684,0,0,0,25.618,41.654Z" transform="translate(-10.226 -8)"/><path class="cls-1" d="M16.689,47.721h1.132a.883.883,0,0,1,.978.917.9.9,0,0,1-1.009.94h-.852v1.435h-.249Zm.249,1.622h.874a.637.637,0,0,0,.725-.7.646.646,0,0,0-.707-.691h-.892Z" transform="translate(-10.226 -8)"/><path class="cls-1" d="M19.465,48.662c.458,1.344.657,1.9.734,2.153h0c.091-.287.272-.832.711-2.153h.236L20.3,51.149c-.24.7-.4.851-.81.851a1.5,1.5,0,0,1-.208-.014v-.235a1.482,1.482,0,0,0,.2.014c.326,0,.43-.165.6-.649l-.865-2.454Z" transform="translate(-10.226 -8)"/><path class="cls-1" d="M21.408,48.662h.421v-.734h.227v.734h.538v.22h-.538v1.529c0,.263.054.413.271.413a.814.814,0,0,0,.236-.028V51a.768.768,0,0,1-.281.042c-.29,0-.453-.15-.453-.526V48.882h-.421Z" transform="translate(-10.226 -8)"/><path class="cls-1" d="M23.269,47.547v1.51a.787.787,0,0,1,.748-.452c.321,0,.765.169.765.912v1.5h-.227V49.564c0-.465-.2-.728-.579-.728-.449,0-.707.286-.707.865v1.312h-.226V47.547Z" transform="translate(-10.226 -8)"/><path class="cls-1" d="M27.359,49.832c0,.654-.349,1.237-1.024,1.237-.611,0-.991-.522-.991-1.232,0-.672.357-1.232,1.014-1.232C26.96,48.605,27.359,49.094,27.359,49.832Zm-1.775.005c0,.56.29,1.011.77,1.011s.765-.419.765-1.011c0-.555-.272-1.011-.775-1.011S25.584,49.273,25.584,49.837Z" transform="translate(-10.226 -8)"/><path class="cls-1" d="M27.92,49.254c0-.207,0-.4,0-.592h.222c.009.075.013.38.009.446a.741.741,0,0,1,.752-.5c.4,0,.76.235.76.884v1.524h-.226V49.527c0-.419-.168-.691-.562-.691-.539,0-.724.465-.724.977v1.2H27.92Z" transform="translate(-10.226 -8)"/><path class="cls-1" d="M14.105,60.075a2.236,2.236,0,0,1-.156.854,1.8,1.8,0,0,1-.447.649,1.984,1.984,0,0,1-.712.414,3.076,3.076,0,0,1-1.008.147h-.717v2.274a.109.109,0,0,1-.022.068.139.139,0,0,1-.068.046.627.627,0,0,1-.127.03,1.417,1.417,0,0,1-.2.012,1.4,1.4,0,0,1-.2-.012.682.682,0,0,1-.13-.03.126.126,0,0,1-.068-.046.12.12,0,0,1-.019-.068V58.586a.34.34,0,0,1,.1-.278.357.357,0,0,1,.229-.083h1.352c.137,0,.268.006.393.017a3.713,3.713,0,0,1,.444.074,1.822,1.822,0,0,1,.522.209,1.649,1.649,0,0,1,.451.379,1.615,1.615,0,0,1,.286.519A2.013,2.013,0,0,1,14.105,60.075Zm-.883.068a1.308,1.308,0,0,0-.144-.644,1.006,1.006,0,0,0-.356-.386,1.216,1.216,0,0,0-.44-.161,3.062,3.062,0,0,0-.441-.034h-.776v2.533h.756a1.759,1.759,0,0,0,.632-.1,1.176,1.176,0,0,0,.422-.271,1.132,1.132,0,0,0,.259-.414A1.542,1.542,0,0,0,13.222,60.143Z" transform="translate(-10.226 -8)"/><path class="cls-1" d="M17.862,60.314c0,.071,0,.132,0,.18a.433.433,0,0,1-.019.115.157.157,0,0,1-.037.063.08.08,0,0,1-.061.022.265.265,0,0,1-.095-.022c-.037-.014-.08-.029-.127-.044s-.1-.028-.158-.041a.882.882,0,0,0-.191-.02.627.627,0,0,0-.239.049.937.937,0,0,0-.246.161,1.993,1.993,0,0,0-.271.3q-.141.186-.312.454v2.889a.1.1,0,0,1-.02.065.153.153,0,0,1-.063.047.437.437,0,0,1-.122.029,1.567,1.567,0,0,1-.2.01,1.514,1.514,0,0,1-.2-.01.462.462,0,0,1-.125-.029.13.13,0,0,1-.063-.047.111.111,0,0,1-.017-.065V60.026a.134.134,0,0,1,.014-.066.131.131,0,0,1,.059-.049.343.343,0,0,1,.112-.029,2.3,2.3,0,0,1,.359,0,.3.3,0,0,1,.109.029.166.166,0,0,1,.057.049.124.124,0,0,1,.017.066v.639a3.312,3.312,0,0,1,.339-.429,1.855,1.855,0,0,1,.3-.261.909.909,0,0,1,.28-.132,1.079,1.079,0,0,1,.281-.037c.042,0,.09,0,.144.008a1.164,1.164,0,0,1,.168.026,1.487,1.487,0,0,1,.159.044.368.368,0,0,1,.1.049.14.14,0,0,1,.039.046.279.279,0,0,1,.017.057.635.635,0,0,1,.01.1C17.861,60.18,17.862,60.239,17.862,60.314Z" transform="translate(-10.226 -8)"/><path class="cls-1" d="M22.7,62.173a3.267,3.267,0,0,1-.142.988,2.174,2.174,0,0,1-.422.778,1.913,1.913,0,0,1-.7.51,2.446,2.446,0,0,1-.979.183,2.518,2.518,0,0,1-.944-.161A1.723,1.723,0,0,1,18.843,64a1.987,1.987,0,0,1-.4-.747,3.455,3.455,0,0,1-.132-.995,3.365,3.365,0,0,1,.139-.988,2.159,2.159,0,0,1,.42-.779,1.884,1.884,0,0,1,.7-.507,2.457,2.457,0,0,1,.981-.181,2.538,2.538,0,0,1,.944.161,1.729,1.729,0,0,1,.671.469,2.023,2.023,0,0,1,.4.746A3.4,3.4,0,0,1,22.7,62.173Zm-.834.054a3.237,3.237,0,0,0-.067-.674A1.642,1.642,0,0,0,21.583,61a1.087,1.087,0,0,0-.414-.378,1.365,1.365,0,0,0-.65-.139,1.385,1.385,0,0,0-.618.127,1.126,1.126,0,0,0-.425.358,1.607,1.607,0,0,0-.249.549,2.756,2.756,0,0,0-.081.693,3.318,3.318,0,0,0,.066.678,1.579,1.579,0,0,0,.222.554,1.112,1.112,0,0,0,.416.376,1.365,1.365,0,0,0,.65.139,1.387,1.387,0,0,0,.615-.127,1.124,1.124,0,0,0,.428-.356,1.551,1.551,0,0,0,.247-.547A2.914,2.914,0,0,0,21.869,62.227Z" transform="translate(-10.226 -8)"/><path class="cls-1" d="M27.558,60.226a.488.488,0,0,1-.046.246.137.137,0,0,1-.12.076h-.629a.988.988,0,0,1,.239.388,1.448,1.448,0,0,1,.068.442,1.726,1.726,0,0,1-.122.673,1.338,1.338,0,0,1-.349.495,1.567,1.567,0,0,1-.539.31,2.108,2.108,0,0,1-.693.107,1.811,1.811,0,0,1-.51-.07,1.09,1.09,0,0,1-.373-.178.734.734,0,0,0-.144.2.573.573,0,0,0-.056.258.335.335,0,0,0,.159.283.759.759,0,0,0,.422.122l1.146.049a2.436,2.436,0,0,1,.6.09,1.478,1.478,0,0,1,.473.23,1.056,1.056,0,0,1,.312.366,1.08,1.08,0,0,1,.112.5,1.357,1.357,0,0,1-.126.575,1.323,1.323,0,0,1-.388.481,1.955,1.955,0,0,1-.666.327,3.388,3.388,0,0,1-.957.12,3.861,3.861,0,0,1-.905-.091,1.952,1.952,0,0,1-.612-.246.959.959,0,0,1-.347-.373,1.057,1.057,0,0,1-.107-.471,1.249,1.249,0,0,1,.039-.313,1.139,1.139,0,0,1,.119-.287,1.434,1.434,0,0,1,.2-.262,2.726,2.726,0,0,1,.276-.246.87.87,0,0,1-.354-.307.751.751,0,0,1-.114-.4,1.125,1.125,0,0,1,.122-.532,1.761,1.761,0,0,1,.3-.42,1.44,1.44,0,0,1-.239-.407,1.541,1.541,0,0,1-.088-.549,1.716,1.716,0,0,1,.127-.674,1.438,1.438,0,0,1,.351-.5,1.539,1.539,0,0,1,.54-.315,2.067,2.067,0,0,1,.685-.11,2.918,2.918,0,0,1,.374.022,2.7,2.7,0,0,1,.324.061h1.327a.134.134,0,0,1,.125.08A.574.574,0,0,1,27.558,60.226ZM26.7,64.862a.492.492,0,0,0-.232-.437,1.172,1.172,0,0,0-.627-.164l-1.137-.039a2.181,2.181,0,0,0-.256.232,1.28,1.28,0,0,0-.158.21.714.714,0,0,0-.081.2.943.943,0,0,0-.022.2.518.518,0,0,0,.322.48,2.016,2.016,0,0,0,.9.164,2.268,2.268,0,0,0,.613-.071,1.174,1.174,0,0,0,.4-.188.684.684,0,0,0,.217-.268A.787.787,0,0,0,26.7,64.862Zm-.405-3.48a.959.959,0,0,0-.246-.7.938.938,0,0,0-.7-.251.987.987,0,0,0-.408.078.808.808,0,0,0-.288.215.929.929,0,0,0-.171.314,1.254,1.254,0,0,0-.056.374.859.859,0,0,0,.937.932,1.049,1.049,0,0,0,.415-.076.767.767,0,0,0,.29-.21.87.87,0,0,0,.171-.31A1.177,1.177,0,0,0,26.3,61.382Z" transform="translate(-10.226 -8)"/><path class="cls-1" d="M31.159,60.314c0,.071,0,.132,0,.18a.472.472,0,0,1-.02.115.157.157,0,0,1-.037.063.08.08,0,0,1-.061.022.265.265,0,0,1-.095-.022c-.037-.014-.079-.029-.127-.044s-.1-.028-.158-.041a.879.879,0,0,0-.19-.02.628.628,0,0,0-.24.049.937.937,0,0,0-.246.161,1.993,1.993,0,0,0-.271.3q-.141.186-.312.454v2.889a.1.1,0,0,1-.02.065.153.153,0,0,1-.063.047.428.428,0,0,1-.122.029,1.567,1.567,0,0,1-.2.01,1.514,1.514,0,0,1-.2-.01.471.471,0,0,1-.125-.029.13.13,0,0,1-.063-.047.111.111,0,0,1-.017-.065V60.026a.146.146,0,0,1,.014-.066.136.136,0,0,1,.059-.049.351.351,0,0,1,.112-.029,2.3,2.3,0,0,1,.359,0,.305.305,0,0,1,.11.029.162.162,0,0,1,.056.049.124.124,0,0,1,.017.066v.639a3.312,3.312,0,0,1,.339-.429,1.855,1.855,0,0,1,.3-.261.9.9,0,0,1,.281-.132,1.066,1.066,0,0,1,.28-.037c.042,0,.09,0,.144.008a1.164,1.164,0,0,1,.168.026,1.487,1.487,0,0,1,.159.044.353.353,0,0,1,.1.049.129.129,0,0,1,.039.046.279.279,0,0,1,.017.057.635.635,0,0,1,.01.1C31.159,60.18,31.159,60.239,31.159,60.314Z" transform="translate(-10.226 -8)"/><path class="cls-1" d="M35.18,64.422a.1.1,0,0,1-.039.088.272.272,0,0,1-.107.044,1,1,0,0,1-.2.015,1.093,1.093,0,0,1-.2-.015.232.232,0,0,1-.109-.044.109.109,0,0,1-.035-.088v-.439a2.148,2.148,0,0,1-.641.478,1.7,1.7,0,0,1-.749.171,2.046,2.046,0,0,1-.627-.09,1.358,1.358,0,0,1-.479-.261,1.178,1.178,0,0,1-.307-.42,1.391,1.391,0,0,1-.11-.566,1.318,1.318,0,0,1,.151-.644,1.266,1.266,0,0,1,.435-.454,2.148,2.148,0,0,1,.693-.271,4.308,4.308,0,0,1,.922-.09h.605V61.5a1.684,1.684,0,0,0-.054-.449.759.759,0,0,0-.173-.325.748.748,0,0,0-.31-.195,1.441,1.441,0,0,0-.468-.066,1.873,1.873,0,0,0-.535.071,2.819,2.819,0,0,0-.414.156c-.119.057-.218.109-.3.156a.416.416,0,0,1-.178.071.119.119,0,0,1-.068-.02.165.165,0,0,1-.052-.058.3.3,0,0,1-.031-.1.8.8,0,0,1-.01-.134.879.879,0,0,1,.017-.193.275.275,0,0,1,.083-.134,1.024,1.024,0,0,1,.227-.149,2.451,2.451,0,0,1,.371-.156,3.4,3.4,0,0,1,.458-.117,2.737,2.737,0,0,1,.5-.047,2.618,2.618,0,0,1,.8.108,1.3,1.3,0,0,1,.537.314,1.222,1.222,0,0,1,.3.515,2.522,2.522,0,0,1,.092.717Zm-.8-2h-.688a2.626,2.626,0,0,0-.576.056,1.193,1.193,0,0,0-.405.166.7.7,0,0,0-.237.263.8.8,0,0,0-.075.354.707.707,0,0,0,.217.544.857.857,0,0,0,.608.2,1.136,1.136,0,0,0,.588-.161,2.558,2.558,0,0,0,.568-.493Z" transform="translate(-10.226 -8)"/><path class="cls-1" d="M43.173,64.418a.1.1,0,0,1-.019.065.15.15,0,0,1-.064.047.428.428,0,0,1-.122.029,1.514,1.514,0,0,1-.2.01,1.567,1.567,0,0,1-.2-.01.453.453,0,0,1-.124-.029.152.152,0,0,1-.066-.047.1.1,0,0,1-.02-.065v-2.67a2.41,2.41,0,0,0-.049-.507,1.142,1.142,0,0,0-.156-.4.714.714,0,0,0-.273-.254.819.819,0,0,0-.39-.088.92.92,0,0,0-.559.215,3.85,3.85,0,0,0-.617.629v3.07a.1.1,0,0,1-.02.065.152.152,0,0,1-.066.047.463.463,0,0,1-.124.029,1.887,1.887,0,0,1-.388,0,.469.469,0,0,1-.127-.029.13.13,0,0,1-.063-.047.111.111,0,0,1-.018-.065v-2.67a2.217,2.217,0,0,0-.053-.507,1.253,1.253,0,0,0-.161-.4.731.731,0,0,0-.271-.254.8.8,0,0,0-.388-.088.929.929,0,0,0-.561.215,3.656,3.656,0,0,0-.615.629v3.07a.1.1,0,0,1-.02.065.153.153,0,0,1-.063.047.428.428,0,0,1-.122.029,1.567,1.567,0,0,1-.2.01,1.514,1.514,0,0,1-.2-.01.471.471,0,0,1-.125-.029.13.13,0,0,1-.063-.047.118.118,0,0,1-.017-.065V60.026a.146.146,0,0,1,.014-.066.136.136,0,0,1,.059-.049.351.351,0,0,1,.112-.029,2.3,2.3,0,0,1,.359,0,.305.305,0,0,1,.11.029.162.162,0,0,1,.056.049.124.124,0,0,1,.017.066v.581a2.845,2.845,0,0,1,.72-.608,1.447,1.447,0,0,1,.7-.193,1.721,1.721,0,0,1,.49.064,1.286,1.286,0,0,1,.383.178,1.166,1.166,0,0,1,.283.273,1.591,1.591,0,0,1,.2.354,4.423,4.423,0,0,1,.418-.4A2.484,2.484,0,0,1,40.96,60a1.577,1.577,0,0,1,.356-.148,1.345,1.345,0,0,1,.349-.047,1.545,1.545,0,0,1,.713.149,1.291,1.291,0,0,1,.466.4,1.6,1.6,0,0,1,.254.583,3.215,3.215,0,0,1,.075.7Z" transform="translate(-10.226 -8)"/><path class="cls-1" d="M47.95,64.422a.1.1,0,0,1-.039.088.266.266,0,0,1-.107.044,1,1,0,0,1-.2.015,1.093,1.093,0,0,1-.2-.015.232.232,0,0,1-.109-.044.109.109,0,0,1-.035-.088v-.439a2.136,2.136,0,0,1-.641.478,1.7,1.7,0,0,1-.749.171,2.046,2.046,0,0,1-.627-.09,1.344,1.344,0,0,1-.478-.261,1.169,1.169,0,0,1-.308-.42,1.391,1.391,0,0,1-.11-.566,1.308,1.308,0,0,1,.152-.644,1.254,1.254,0,0,1,.434-.454,2.167,2.167,0,0,1,.693-.271,4.308,4.308,0,0,1,.922-.09h.6V61.5a1.684,1.684,0,0,0-.054-.449.759.759,0,0,0-.173-.325.742.742,0,0,0-.31-.195,1.441,1.441,0,0,0-.468-.066,1.861,1.861,0,0,0-.534.071,2.834,2.834,0,0,0-.415.156c-.119.057-.218.109-.3.156a.416.416,0,0,1-.178.071.119.119,0,0,1-.068-.02.165.165,0,0,1-.052-.058.3.3,0,0,1-.031-.1.8.8,0,0,1-.01-.134.879.879,0,0,1,.017-.193.275.275,0,0,1,.083-.134,1.049,1.049,0,0,1,.227-.149,2.451,2.451,0,0,1,.371-.156,3.411,3.411,0,0,1,.459-.117,2.719,2.719,0,0,1,.5-.047,2.618,2.618,0,0,1,.8.108,1.3,1.3,0,0,1,.537.314,1.222,1.222,0,0,1,.3.515,2.522,2.522,0,0,1,.092.717Zm-.8-2h-.688a2.626,2.626,0,0,0-.576.056,1.193,1.193,0,0,0-.405.166.684.684,0,0,0-.236.263.787.787,0,0,0-.076.354.707.707,0,0,0,.217.544.857.857,0,0,0,.608.2,1.136,1.136,0,0,0,.588-.161,2.558,2.558,0,0,0,.568-.493Z" transform="translate(-10.226 -8)"/><path class="cls-1" d="M52.586,63.749c0,.055,0,.1,0,.144a.49.49,0,0,1-.017.1.394.394,0,0,1-.029.074.515.515,0,0,1-.078.092,1.233,1.233,0,0,1-.208.152,1.975,1.975,0,0,1-.329.161,2.477,2.477,0,0,1-.4.114,2.157,2.157,0,0,1-.444.044,2.124,2.124,0,0,1-.839-.156,1.579,1.579,0,0,1-.612-.456,2.06,2.06,0,0,1-.376-.737,3.565,3.565,0,0,1-.129-1.008,3.473,3.473,0,0,1,.158-1.115,2.118,2.118,0,0,1,.434-.763,1.719,1.719,0,0,1,.649-.442,2.226,2.226,0,0,1,.808-.144,2.089,2.089,0,0,1,.407.039,2.163,2.163,0,0,1,.364.1,1.59,1.59,0,0,1,.3.146,1.165,1.165,0,0,1,.188.142.655.655,0,0,1,.081.092.38.38,0,0,1,.036.081.516.516,0,0,1,.02.1c0,.039.005.088.005.146a.574.574,0,0,1-.044.266.128.128,0,0,1-.108.076.277.277,0,0,1-.168-.081,2.516,2.516,0,0,0-.242-.178,1.841,1.841,0,0,0-.353-.178,1.351,1.351,0,0,0-.491-.081,1.016,1.016,0,0,0-.89.447,2.26,2.26,0,0,0-.31,1.3,3.109,3.109,0,0,0,.08.745,1.545,1.545,0,0,0,.237.534.98.98,0,0,0,.383.32,1.226,1.226,0,0,0,.52.1,1.269,1.269,0,0,0,.488-.087,2.045,2.045,0,0,0,.363-.193c.1-.07.189-.133.259-.19a.307.307,0,0,1,.163-.086.092.092,0,0,1,.059.02.147.147,0,0,1,.041.066.457.457,0,0,1,.025.117A1.631,1.631,0,0,1,52.586,63.749Z" transform="translate(-10.226 -8)"/><path class="cls-1" d="M54.553,58.542a.528.528,0,0,1-.108.386.577.577,0,0,1-.4.1.566.566,0,0,1-.388-.1.518.518,0,0,1-.1-.378.527.527,0,0,1,.108-.385.806.806,0,0,1,.783,0A.521.521,0,0,1,54.553,58.542Zm-.093,5.876a.1.1,0,0,1-.02.065.153.153,0,0,1-.063.047.428.428,0,0,1-.122.029,1.567,1.567,0,0,1-.2.01,1.514,1.514,0,0,1-.2-.01.471.471,0,0,1-.125-.029.13.13,0,0,1-.063-.047.111.111,0,0,1-.017-.065V60.026a.12.12,0,0,1,.017-.064.125.125,0,0,1,.063-.048.509.509,0,0,1,.125-.03,1.75,1.75,0,0,1,.2-.009,1.811,1.811,0,0,1,.2.009.46.46,0,0,1,.122.03.146.146,0,0,1,.063.048.115.115,0,0,1,.02.064Z" transform="translate(-10.226 -8)"/><path class="cls-1" d="M60.032,62.173a3.3,3.3,0,0,1-.141.988,2.174,2.174,0,0,1-.422.778,1.908,1.908,0,0,1-.7.51,2.438,2.438,0,0,1-.978.183,2.518,2.518,0,0,1-.944-.161A1.716,1.716,0,0,1,56.173,64a1.973,1.973,0,0,1-.4-.747,3.455,3.455,0,0,1-.132-.995,3.332,3.332,0,0,1,.139-.988,2.158,2.158,0,0,1,.419-.779,1.9,1.9,0,0,1,.7-.507,2.45,2.45,0,0,1,.981-.181,2.542,2.542,0,0,1,.944.161,1.736,1.736,0,0,1,.671.469,2.007,2.007,0,0,1,.4.746A3.37,3.37,0,0,1,60.032,62.173Zm-.834.054a3.237,3.237,0,0,0-.067-.674A1.662,1.662,0,0,0,58.913,61a1.087,1.087,0,0,0-.414-.378,1.368,1.368,0,0,0-.65-.139,1.382,1.382,0,0,0-.618.127,1.129,1.129,0,0,0-.426.358,1.587,1.587,0,0,0-.248.549,2.755,2.755,0,0,0-.082.693,3.248,3.248,0,0,0,.067.678,1.6,1.6,0,0,0,.221.554,1.112,1.112,0,0,0,.416.376,1.371,1.371,0,0,0,.65.139,1.388,1.388,0,0,0,.616-.127,1.132,1.132,0,0,0,.428-.356,1.55,1.55,0,0,0,.246-.547A2.864,2.864,0,0,0,59.2,62.227Zm-.961-4.348a.308.308,0,0,1,.068-.088.284.284,0,0,1,.095-.054.716.716,0,0,1,.139-.029,1.643,1.643,0,0,1,.2-.01,1.206,1.206,0,0,1,.222.017.262.262,0,0,1,.12.049.083.083,0,0,1,.029.073.161.161,0,0,1-.044.086l-.883,1.137a.841.841,0,0,1-.071.078.238.238,0,0,1-.073.046.422.422,0,0,1-.107.025c-.044,0-.1.007-.164.007a.767.767,0,0,1-.17-.015.211.211,0,0,1-.091-.039.063.063,0,0,1-.019-.063.275.275,0,0,1,.041-.093Z" transform="translate(-10.226 -8)"/><path class="cls-1" d="M65,64.418a.1.1,0,0,1-.02.065.153.153,0,0,1-.063.047.428.428,0,0,1-.122.029,1.514,1.514,0,0,1-.2.01,1.567,1.567,0,0,1-.2-.01.428.428,0,0,1-.122-.029.157.157,0,0,1-.064-.047.1.1,0,0,1-.019-.065V61.846a2.524,2.524,0,0,0-.059-.6,1.261,1.261,0,0,0-.17-.4.735.735,0,0,0-.291-.254.915.915,0,0,0-.412-.088,1.04,1.04,0,0,0-.6.215,3.3,3.3,0,0,0-.635.629v3.07a.1.1,0,0,1-.019.065.15.15,0,0,1-.064.047.428.428,0,0,1-.122.029,1.557,1.557,0,0,1-.2.01,1.514,1.514,0,0,1-.2-.01.463.463,0,0,1-.124-.029.139.139,0,0,1-.064-.047.118.118,0,0,1-.017-.065V60.026a.134.134,0,0,1,.015-.066.133.133,0,0,1,.058-.049.357.357,0,0,1,.113-.029,1.73,1.73,0,0,1,.18-.007,1.751,1.751,0,0,1,.178.007.3.3,0,0,1,.11.029.153.153,0,0,1,.056.049.116.116,0,0,1,.017.066v.581a2.71,2.71,0,0,1,.74-.608,1.593,1.593,0,0,1,.744-.193,1.655,1.655,0,0,1,.739.149,1.334,1.334,0,0,1,.486.4,1.581,1.581,0,0,1,.265.583,3.45,3.45,0,0,1,.081.8Z" transform="translate(-10.226 -8)"/></svg>