<svg id="Capa_1" data-name="Capa 1" xmlns="http://www.w3.org/2000/svg" viewBox="0 0 202.6812 203.8101"><defs><style>.cls-1,.cls-2{fill:#fff;}.cls-1{stroke:#fff;stroke-miterlimit:10;stroke-width:0.2652px;}</style></defs><path class="cls-1" d="M110.5426,128.9172q-16.4494,0-24.4673-10.4863a23.4662,23.4662,0,0,1,3.2383-31.9727q8.0691-7.0935,21.229-7.0933h55.5151L160.8146,96.739H110.7482q-6.2718,0-8.3272,4.6259a7.2677,7.2677,0,0,0-.6167,2.8789,6.786,6.786,0,0,0,4.3179,6.4766,11.15,11.15,0,0,0,4.626.9253h28.1689q15.7294,0,23.8506,10.0747a23.02,23.02,0,0,1,5.1406,14.7017,22.4393,22.4393,0,0,1-8.0195,17.6816q-8.0186,6.9932-20.9717,6.9912H81.2433l5.2431-17.374H138.711q6.3736,0,8.3272-4.5234a6.547,6.547,0,0,0,.6172-2.7754,6.8066,6.8066,0,0,0-4.1123-6.4776,11.1266,11.1266,0,0,0-4.8321-1.0273Z" transform="translate(-23.3898 -22.9772)"/><path class="cls-2" d="M124.1666,226.7873A101.95,101.95,0,0,1,25.6993,151.19l21.916-5.8359A79.308,79.308,0,0,0,153.11,198.6559l8.27,21.1182A101.6392,101.6392,0,0,1,124.1666,226.7873Zm71.9014-29.6929-15.8555-16.2158,7.19,7.3535-7.3047-7.2383.0893-.0908a79.2264,79.2264,0,0,0,0-112.0415,80.5322,80.5322,0,0,0-6.6611-5.96l14.1518-17.7226a103.1773,103.1773,0,0,1,8.5464,7.645,101.9068,101.9068,0,0,1,.0454,144.07ZM45.8194,113.0754,23.39,109.717a101.9186,101.9186,0,0,1,100.7763-86.74,102.2354,102.2354,0,0,1,26.4,3.4634l-5.8564,21.91a79.5534,79.5534,0,0,0-20.543-2.6939,79.24,79.24,0,0,0-78.3472,67.4185Z" transform="translate(-23.3898 -22.9772)"/></svg>