<svg id="Capa_1" data-name="Capa 1" xmlns="http://www.w3.org/2000/svg" viewBox="0 0 197.5645 195.9899"><defs><style>.cls-1,.cls-2{fill:#fff;}.cls-1{stroke:#fff;stroke-width:0.2815px;}</style></defs><path class="cls-1" d="M115.0171,103.2551q-11.8287,0-17.5938-7.54a16.8736,16.8736,0,0,1,2.3282-22.99q5.8022-5.1014,15.2656-5.1011H154.936l-3.7695,12.4932H115.1646q-4.5088,0-5.9874,3.3266a5.2191,5.2191,0,0,0-.4433,2.07,4.8781,4.8781,0,0,0,3.1045,4.6573,8.0115,8.0115,0,0,0,3.3262.6655H135.42q11.3115,0,17.15,7.2446a16.5489,16.5489,0,0,1,3.6973,10.5713,16.1419,16.1419,0,0,1-5.7676,12.7149q-5.7657,5.028-15.08,5.0268H93.9487l3.77-12.4932H135.272q4.5849,0,5.9883-3.2529a4.6879,4.6879,0,0,0,.4433-1.9956,4.8928,4.8928,0,0,0-2.957-4.6572,7.991,7.991,0,0,0-3.4746-.7393Z" transform="translate(-26.1678 -27.0754)"/><path class="cls-1" d="M48.8521,208.8875a10.9155,10.9155,0,0,1,6.3554,1.5468,5.3539,5.3539,0,0,1,2.1758,4.6729,8.5462,8.5462,0,0,1-.5439,3.1269,5.534,5.534,0,0,1-1.7334,2.3448,8.3754,8.3754,0,0,1-3.042,1.4619,16.8841,16.8841,0,0,1-4.4356.51H26.4546l4.5205-5.8457H48.1724a3.3447,3.3447,0,0,0,1.8349-.3906,1.4254,1.4254,0,0,0,.5781-1.2744,1.3821,1.3821,0,0,0-.5781-1.2578,3.4732,3.4732,0,0,0-1.8349-.374H35.8013a13.4156,13.4156,0,0,1-3.8067-.4756,7.6539,7.6539,0,0,1-2.6513-1.3252,5.2223,5.2223,0,0,1-1.5635-2.0567,6.7835,6.7835,0,0,1-.51-2.6679,7.3074,7.3074,0,0,1,.5615-2.9063,5.5881,5.5881,0,0,1,1.7325-2.2256,8.5276,8.5276,0,0,1,3.0254-1.4277,16.8719,16.8719,0,0,1,4.4355-.51H56.771l-4.52,5.9141H36.481a3.78,3.78,0,0,0-1.8184.34,1.2875,1.2875,0,0,0-.5947,1.2237,1.3276,1.3276,0,0,0,.5947,1.24,3.6326,3.6326,0,0,0,1.8184.3565Z" transform="translate(-26.1678 -27.0754)"/><path class="cls-1" d="M93.0688,199.8132,79.5767,215.04v7.5107H72.5073v-7.5449L58.64,199.8132h9.0411l5.4375,6.3213q.2724.3062.7138.7988t.918,1.0372q.4746.5435.8838,1.02.4073.4761.5771.7139.34-.4761.9854-1.292t1.87-2.3116l5.166-6.2871Z" transform="translate(-26.1678 -27.0754)"/><path class="cls-1" d="M114.5151,208.8875a10.9158,10.9158,0,0,1,6.3555,1.5468,5.3539,5.3539,0,0,1,2.1758,4.6729,8.5462,8.5462,0,0,1-.544,3.1269,5.5323,5.5323,0,0,1-1.7334,2.3448,8.3741,8.3741,0,0,1-3.0419,1.4619,16.8841,16.8841,0,0,1-4.4356.51H92.1177l4.52-5.8457h17.1972a3.3453,3.3453,0,0,0,1.835-.3906,1.4254,1.4254,0,0,0,.5781-1.2744,1.3821,1.3821,0,0,0-.5781-1.2578,3.4739,3.4739,0,0,0-1.835-.374h-12.371a13.4156,13.4156,0,0,1-3.8067-.4756,7.6553,7.6553,0,0,1-2.6514-1.3252,5.223,5.223,0,0,1-1.5634-2.0567,6.7835,6.7835,0,0,1-.51-2.6679,7.3074,7.3074,0,0,1,.5615-2.9063,5.5881,5.5881,0,0,1,1.7325-2.2256,8.5279,8.5279,0,0,1,3.0253-1.4277,16.8732,16.8732,0,0,1,4.4356-.51h19.7461l-4.52,5.9141h-15.77a3.78,3.78,0,0,0-1.8183.34,1.2875,1.2875,0,0,0-.5947,1.2237,1.3276,1.3276,0,0,0,.5947,1.24,3.6324,3.6324,0,0,0,1.8183.3565Z" transform="translate(-26.1678 -27.0754)"/><path class="cls-1" d="M152.3774,199.8132l-4.5546,5.9141H139.7v16.8232h-7.0351V205.7273H121.9927l4.5547-5.9141Z" transform="translate(-26.1678 -27.0754)"/><path class="cls-1" d="M180.9263,216.7048l-4.52,5.8457H154.519V199.8132h26.34l-4.5547,5.9141H161.5884v2.7187h18.0127l-4.0449,5.1661H161.5884v3.0927Z" transform="translate(-26.1678 -27.0754)"/><path class="cls-1" d="M199.0405,208.2761q.7486,1.3257,1.3086,2.3281t.9863,1.7842q.4235.7823.7471,1.4278t.6289,1.2568c.1817-.4072.3789-.82.5948-1.24s.4638-.8946.748-1.4278q.4248-.7968.9854-1.7842.561-.9843,1.3085-2.31l3.6368-6.458a5.277,5.277,0,0,1,1.5459-1.75,3.9208,3.9208,0,0,1,2.3281-.6631,4.0264,4.0264,0,0,1,2.3965.7647,4.2886,4.2886,0,0,1,1.5468,2.3623l5.7432,19.9843h-7.001l-2.1416-7.9189q-.5435-1.938-.917-3.3984-.375-1.4621-.6464-2.8555-.5772,1.1909-1.2911,2.6338-.7133,1.4457-1.8691,3.6543l-3.06,5.71a6.0835,6.0835,0,0,1-.9,1.3418,3.9853,3.9853,0,0,1-.9345.7647,2.9546,2.9546,0,0,1-1.02.3574,8.3648,8.3648,0,0,1-2.3789,0,2.94,2.94,0,0,1-1.0195-.3574,3.9877,3.9877,0,0,1-.9346-.7647,6.087,6.087,0,0,1-.9013-1.3418l-3.0586-5.7441q-.611-1.1558-1.0879-2.0733t-.8662-1.6484q-.3912-.731-.68-1.3428t-.5606-1.1894q-.2724,1.3608-.6465,2.8379-.3735,1.4794-.8828,3.416l-2.1416,7.9189h-6.8994l5.88-19.9843a4.2428,4.2428,0,0,1,1.5635-2.3623,4.1,4.1,0,0,1,2.4131-.7647,3.9433,3.9433,0,0,1,2.2939.6455,5.0254,5.0254,0,0,1,1.5469,1.7676Z" transform="translate(-26.1678 -27.0754)"/><path class="cls-2" d="M124.813,173.63a73.2525,73.2525,0,0,1-36.77-9.88l8.1933-14.1006a57.013,57.013,0,0,0,80.7637-26.41l14.9316,6.5586A73.3294,73.3294,0,0,1,124.813,173.63ZM65.812,143.8157a72.7041,72.7041,0,0,1-14.2764-43.4629,73.5394,73.5394,0,0,1,36.6895-63.502l8.1543,14.1241a57.1841,57.1841,0,0,0-28.5352,49.3779A56.507,56.507,0,0,0,78.9351,134.134ZM198.09,100.5427H181.7817v-.19A57.033,57.033,0,0,0,124.813,43.384a57.9164,57.9164,0,0,0-6.3867.3531l-1.8047-16.208a74.3012,74.3012,0,0,1,8.1914-.4537A73.36,73.36,0,0,1,198.09,100.3528Z" transform="translate(-26.1678 -27.0754)"/></svg>