<svg id="Capa_1" data-name="Capa 1" xmlns="http://www.w3.org/2000/svg" viewBox="0 0 225.642 83.883"><defs><style>.cls-1{fill:#fff;}</style></defs><path class="cls-1" d="M147.775,232.455a7.407,7.407,0,0,1,4.311,1.05,3.63,3.63,0,0,1,1.476,3.17,5.794,5.794,0,0,1-.369,2.121,3.761,3.761,0,0,1-1.176,1.591,5.688,5.688,0,0,1-2.064.991,11.461,11.461,0,0,1-3.008.346H132.581l3.067-3.966h11.666a2.273,2.273,0,0,0,1.245-.265.968.968,0,0,0,.392-.864.939.939,0,0,0-.392-.854,2.359,2.359,0,0,0-1.245-.254h-8.392a9.121,9.121,0,0,1-2.583-.322,5.21,5.21,0,0,1-1.8-.9,3.537,3.537,0,0,1-1.06-1.4,4.6,4.6,0,0,1-.346-1.809,4.967,4.967,0,0,1,.38-1.972,3.794,3.794,0,0,1,1.177-1.51,5.788,5.788,0,0,1,2.051-.969,11.467,11.467,0,0,1,3.009-.345h13.395l-3.067,4.011h-10.7a2.564,2.564,0,0,0-1.233.231.872.872,0,0,0-.4.83.9.9,0,0,0,.4.842,2.458,2.458,0,0,0,1.233.241Z" transform="translate(-87.332 -158.095)"/><path class="cls-1" d="M177.769,226.3l-9.152,10.329v5.095h-4.8v-5.119l-9.407-10.3h6.133l3.689,4.288.484.542q.3.333.622.7c.216.246.415.476.6.691s.315.377.392.485q.231-.322.668-.876t1.269-1.568l3.5-4.265Z" transform="translate(-87.332 -158.095)"/><path class="cls-1" d="M192.318,232.455a7.4,7.4,0,0,1,4.31,1.05,3.63,3.63,0,0,1,1.476,3.17,5.815,5.815,0,0,1-.368,2.121,3.77,3.77,0,0,1-1.176,1.591,5.7,5.7,0,0,1-2.064.991,11.461,11.461,0,0,1-3.008.346H177.124l3.067-3.966h11.666a2.266,2.266,0,0,0,1.244-.265.966.966,0,0,0,.392-.864.937.937,0,0,0-.392-.854,2.353,2.353,0,0,0-1.244-.254h-8.393a9.119,9.119,0,0,1-2.582-.322,5.192,5.192,0,0,1-1.8-.9,3.537,3.537,0,0,1-1.06-1.4,4.579,4.579,0,0,1-.347-1.809,4.95,4.95,0,0,1,.381-1.972,3.791,3.791,0,0,1,1.176-1.51,5.8,5.8,0,0,1,2.051-.969,11.477,11.477,0,0,1,3.009-.345h13.395l-3.066,4.011h-10.7a2.567,2.567,0,0,0-1.233.231.874.874,0,0,0-.4.83.9.9,0,0,0,.4.842,2.461,2.461,0,0,0,1.233.241Z" transform="translate(-87.332 -158.095)"/><path class="cls-1" d="M218,226.3l-3.09,4.011H209.4v11.413h-4.772V230.311h-7.24l3.09-4.011Z" transform="translate(-87.332 -158.095)"/><path class="cls-1" d="M237.367,237.758l-3.067,3.966H219.452V226.3h17.869l-3.09,4.011h-9.983v1.845h12.219l-2.743,3.5h-9.476v2.1Z" transform="translate(-87.332 -158.095)"/><path class="cls-1" d="M249.655,232.041q.507.9.887,1.579t.669,1.21c.193.353.362.677.507.969s.288.576.427.852q.184-.414.4-.842t.508-.967q.287-.543.668-1.21t.888-1.569l2.466-4.38a3.579,3.579,0,0,1,1.049-1.187,2.661,2.661,0,0,1,1.58-.45,2.729,2.729,0,0,1,1.625.519,2.905,2.905,0,0,1,1.049,1.6l3.9,13.557h-4.749l-1.453-5.373q-.37-1.314-.623-2.305t-.438-1.937q-.393.807-.876,1.787t-1.268,2.479l-2.075,3.873a4.126,4.126,0,0,1-.611.911,2.722,2.722,0,0,1-.634.519,2.02,2.02,0,0,1-.691.242,5.748,5.748,0,0,1-1.615,0,2.013,2.013,0,0,1-.691-.242,2.7,2.7,0,0,1-.634-.519,4.126,4.126,0,0,1-.611-.911l-2.075-3.9q-.416-.783-.738-1.406t-.587-1.118c-.177-.33-.332-.634-.461-.91s-.258-.546-.381-.808q-.185.924-.438,1.926t-.6,2.316l-1.453,5.373H237.9l3.988-13.557a2.878,2.878,0,0,1,1.061-1.6,2.782,2.782,0,0,1,1.637-.519,2.671,2.671,0,0,1,1.556.438,3.408,3.408,0,0,1,1.049,1.2Z" transform="translate(-87.332 -158.095)"/><path class="cls-1" d="M119.222,185.08q5.952,0,9.049,2.2a7.624,7.624,0,0,1,3.1,6.654,12.167,12.167,0,0,1-.774,4.452,7.885,7.885,0,0,1-2.468,3.338,11.91,11.91,0,0,1-4.331,2.081,24.029,24.029,0,0,1-6.315.726H87.333l6.436-8.323h24.485a4.772,4.772,0,0,0,2.614-.556,2.034,2.034,0,0,0,.822-1.815,1.971,1.971,0,0,0-.822-1.79,4.948,4.948,0,0,0-2.614-.532H100.641a19.1,19.1,0,0,1-5.42-.678,10.878,10.878,0,0,1-3.774-1.887,7.446,7.446,0,0,1-2.227-2.928,9.679,9.679,0,0,1-.726-3.8,10.4,10.4,0,0,1,.8-4.137,7.982,7.982,0,0,1,2.468-3.17,12.166,12.166,0,0,1,4.307-2.032,24.019,24.019,0,0,1,6.314-.725H130.5l-6.436,8.419H101.609a5.381,5.381,0,0,0-2.589.484,1.832,1.832,0,0,0-.848,1.742,1.886,1.886,0,0,0,.848,1.766,5.153,5.153,0,0,0,2.589.508Z" transform="translate(-87.332 -158.095)"/><path class="cls-1" d="M173.128,172.161l-6.484,8.419H155.078v23.953H145.062V180.58H129.868l6.484-8.419Z" transform="translate(-87.332 -158.095)"/><path class="cls-1" d="M179.37,200.662a5.3,5.3,0,0,1-2.008-.363,4.72,4.72,0,0,1-1.524-.968,4.245,4.245,0,0,1-.968-1.379,4.053,4.053,0,0,1-.338-1.645,4.7,4.7,0,0,1,.483-2.033,5.786,5.786,0,0,1,1.6-1.935l23.373-18.969a7.572,7.572,0,0,1,2.443-1.355,7.239,7.239,0,0,1,2.106-.387,6.558,6.558,0,0,1,2.08.339,4.6,4.6,0,0,1,1.766,1.064,5.308,5.308,0,0,1,1.21,1.887,7.5,7.5,0,0,1,.459,2.759v15.049h9.243l-5.855,7.936h-3.388v3.871h-9.581v-3.871Zm21.1-12.775q0-1.452.049-2.419t.144-1.791q-1.161,1.162-3.532,3.1l-3.581,2.855q-1.354,1.113-2.394,1.911t-1.96,1.379q1.014-.1,2.371-.145t3.145-.048h5.758Z" transform="translate(-87.332 -158.095)"/><path class="cls-1" d="M268.553,204.533h-13.4l-7.21-8.565H232.551v8.565H222.535V187.984H250.7a7.43,7.43,0,0,0,3.92-.968,2.979,2.979,0,0,0,1.6-2.662,3.15,3.15,0,0,0-1.451-2.83,7.431,7.431,0,0,0-4.065-.944H222.535l6.532-8.419h20.807a33.714,33.714,0,0,1,5.71.507,17.454,17.454,0,0,1,5.371,1.815,11.525,11.525,0,0,1,3.993,3.533,9.678,9.678,0,0,1,1.573,5.709,11,11,0,0,1-.581,3.582,9.838,9.838,0,0,1-4.331,5.346,10.9,10.9,0,0,1-3.557,1.331,23.244,23.244,0,0,1,1.839,1.6q1.017.968,2.71,2.662Z" transform="translate(-87.332 -158.095)"/><path class="cls-1" d="M312.974,204.533H297.827l-9.774-8.516q-2.517-2.178-3.847-3.388t-2.153-2.032c.031.742.065,1.508.1,2.3s.048,1.573.048,2.347v9.291H272.133V172.161H282.2v7.5q0,1.5-.048,2.952T282,185.322q.969-.87,2.347-2.153t3.605-3.121l9.339-7.887h14.518l-12.388,9.29q-1.6,1.211-2.831,2.129t-2.2,1.6c-.646.452-1.233.855-1.766,1.21s-1.057.694-1.573,1.016q1.4.969,3.388,2.42t5.129,4.016Z" transform="translate(-87.332 -158.095)"/><rect class="cls-1" y="57.638" width="225.642" height="1.584"/><rect class="cls-1" width="225.642" height="1.584"/></svg>