<svg id="Capa_1" data-name="Capa 1" xmlns="http://www.w3.org/2000/svg" viewBox="0 0 214.8359 13.6523"><defs><style>.cls-1{fill:#fff;}</style></defs><path class="cls-1" d="M30.7114,122.7822a6.3478,6.3478,0,0,1,3.6944.899,3.1127,3.1127,0,0,1,1.2646,2.7163,4.9732,4.9732,0,0,1-.3164,1.8183,3.2208,3.2208,0,0,1-1.0073,1.3633,4.8883,4.8883,0,0,1-1.7686.85A9.82,9.82,0,0,1,30,130.7246H17.6914l2.6279-3.3984h9.9966a1.9482,1.9482,0,0,0,1.0669-.2266.8289.8289,0,0,0,.336-.7412.8044.8044,0,0,0-.336-.731,2.0185,2.0185,0,0,0-1.0669-.2172H23.1245a7.7977,7.7977,0,0,1-2.2129-.2769,4.4378,4.4378,0,0,1-1.541-.7705,3.0358,3.0358,0,0,1-.9087-1.1953,3.9418,3.9418,0,0,1-.2964-1.5508,4.2484,4.2484,0,0,1,.3262-1.6895,3.2553,3.2553,0,0,1,1.0073-1.2939,4.96,4.96,0,0,1,1.7588-.83,9.8,9.8,0,0,1,2.5781-.2964H35.3145l-2.6275,3.4375H23.52a2.1967,2.1967,0,0,0-1.0566.1978.7472.7472,0,0,0-.3457.7114.77.77,0,0,0,.3457.7207,2.1,2.1,0,0,0,1.0566.2075Z" transform="translate(-17.6914 -117.29)"/><path class="cls-1" d="M52.72,117.5073l-2.6474,3.4375H45.3511v9.78h-4.09v-9.78H35.0576l2.6475-3.4375Z" transform="translate(-17.6914 -117.29)"/><path class="cls-1" d="M55.269,129.1445a2.17,2.17,0,0,1-.82-.1484,1.9221,1.9221,0,0,1-.622-.3955,1.7391,1.7391,0,0,1-.3951-.5625,1.6622,1.6622,0,0,1-.1386-.6719,1.9128,1.9128,0,0,1,.1977-.83,2.3613,2.3613,0,0,1,.6519-.79l9.5425-7.7451a3.1008,3.1008,0,0,1,.998-.5532,2.9645,2.9645,0,0,1,.8594-.1578,2.6835,2.6835,0,0,1,.85.1382,1.8848,1.8848,0,0,1,.7212.4346,2.1608,2.1608,0,0,1,.4936.7705,3.0587,3.0587,0,0,1,.188,1.1265v6.144h3.7735l-2.3907,3.2407H67.7949v1.58H63.8828v-1.58Zm8.6138-5.2163q0-.5925.02-.9878t.0591-.7309q-.4738.4738-1.4424,1.2641l-1.4619,1.166q-.5529.4549-.978.78t-.8.563q.4153-.04.9683-.0591t1.2841-.02h2.3511Z" transform="translate(-17.6914 -117.29)"/><path class="cls-1" d="M91.6812,130.7246H86.2085l-2.9439-3.4971H76.9819v3.4971h-4.09v-6.7568H84.3906a3.0352,3.0352,0,0,0,1.6006-.395,1.2167,1.2167,0,0,0,.6519-1.087A1.287,1.287,0,0,0,86.05,121.33a3.0323,3.0323,0,0,0-1.66-.3853H72.8921l2.6675-3.4375h8.4951a13.7114,13.7114,0,0,1,2.3315.2075,7.1265,7.1265,0,0,1,2.1929.7408,4.703,4.703,0,0,1,1.63,1.4423,3.9468,3.9468,0,0,1,.6421,2.3311,4.4825,4.4825,0,0,1-.2368,1.4619,4.0139,4.0139,0,0,1-1.7686,2.1836,4.4261,4.4261,0,0,1-1.4521.5425,9.6552,9.6552,0,0,1,.7509.6523q.4146.3956,1.1065,1.0869Z" transform="translate(-17.6914 -117.29)"/><path class="cls-1" d="M109.8174,130.7246h-6.1836l-3.9912-3.4775q-1.0277-.8877-1.5708-1.3828t-.8789-.83q.0191.4548.04.9384t.02.9585v3.793H93.1426V117.5073H97.252v3.062q0,.613-.02,1.2056t-.0595,1.1064q.3954-.3559.9584-.8793t1.4717-1.2745l3.813-3.22h5.9273l-5.0577,3.7935q-.6518.4937-1.1557.8691t-.8989.6519q-.3956.2767-.7212.4941t-.6421.4146q.5727.3954,1.3828.9883t2.0942,1.64Z" transform="translate(-17.6914 -117.29)"/><path class="cls-1" d="M130.9766,122.7822a6.35,6.35,0,0,1,3.6953.899,3.1142,3.1142,0,0,1,1.2636,2.7163,4.9628,4.9628,0,0,1-.3164,1.8183,3.2211,3.2211,0,0,1-1.0078,1.3633,4.8715,4.8715,0,0,1-1.7675.85,9.8317,9.8317,0,0,1-2.5782.2959H117.957l2.628-3.3984h9.997a1.95,1.95,0,0,0,1.0664-.2266.8278.8278,0,0,0,.336-.7412.8034.8034,0,0,0-.336-.731,2.02,2.02,0,0,0-1.0664-.2172H123.39a7.7977,7.7977,0,0,1-2.2129-.2769,4.4378,4.4378,0,0,1-1.541-.7705,3.0358,3.0358,0,0,1-.9087-1.1953,3.9418,3.9418,0,0,1-.2963-1.5508,4.2483,4.2483,0,0,1,.3261-1.6895,3.2553,3.2553,0,0,1,1.0073-1.2939,4.96,4.96,0,0,1,1.7588-.83,9.8,9.8,0,0,1,2.5782-.2964H135.58l-2.627,3.4375h-9.1679a2.1969,2.1969,0,0,0-1.0567.1978.7474.7474,0,0,0-.3457.7114.77.77,0,0,0,.3457.7207,2.1,2.1,0,0,0,1.0567.2075Z" transform="translate(-17.6914 -117.29)"/><path class="cls-1" d="M156.6807,117.5073l-7.8438,8.8511v4.3662h-4.1094v-4.3857l-8.06-8.8316h5.2549l3.1611,3.6748q.1583.178.415.4644t.5332.6025c.1846.211.3565.4082.5137.5928s.27.3228.336.4145q.1977-.276.5732-.75t1.0869-1.3438l3.0029-3.6548Z" transform="translate(-17.6914 -117.29)"/><path class="cls-1" d="M169.1475,122.7822a6.3464,6.3464,0,0,1,3.6943.899,3.1125,3.1125,0,0,1,1.2646,2.7163,4.9628,4.9628,0,0,1-.3164,1.8183,3.2211,3.2211,0,0,1-1.0078,1.3633,4.8792,4.8792,0,0,1-1.7676.85,9.83,9.83,0,0,1-2.5781.2959H156.1279l2.627-3.3984h9.9971a1.9509,1.9509,0,0,0,1.0673-.2266.83.83,0,0,0,.336-.7412.8053.8053,0,0,0-.336-.731,2.0213,2.0213,0,0,0-1.0673-.2172h-7.1915a7.7965,7.7965,0,0,1-2.2128-.2769,4.4374,4.4374,0,0,1-1.5411-.7705,3.03,3.03,0,0,1-.9082-1.1953,3.933,3.933,0,0,1-.2968-1.5508,4.2414,4.2414,0,0,1,.3261-1.6895,3.2442,3.2442,0,0,1,1.0078-1.2939,4.9542,4.9542,0,0,1,1.7579-.83,9.8013,9.8013,0,0,1,2.5781-.2964h11.48l-2.628,3.4375h-9.1669a2.2014,2.2014,0,0,0-1.0577.1978.7483.7483,0,0,0-.3457.7114.7711.7711,0,0,0,.3457.7207,2.1043,2.1043,0,0,0,1.0577.2075Z" transform="translate(-17.6914 -117.29)"/><path class="cls-1" d="M191.1572,117.5073l-2.6474,3.4375h-4.7227v9.78h-4.0889v-9.78h-6.2041l2.6475-3.4375Z" transform="translate(-17.6914 -117.29)"/><path class="cls-1" d="M207.752,127.3262l-2.628,3.3984H192.4014V117.5073h15.3115l-2.6475,3.4375h-8.5547v1.5806h10.4707l-2.3505,3.0029h-8.12v1.7979Z" transform="translate(-17.6914 -117.29)"/><path class="cls-1" d="M218.2822,122.4268q.4352.77.7608,1.3535t.5732,1.0371q.2462.4548.4346.83t.3652.7309q.1583-.3544.3457-.7212.1875-.3646.4346-.83t.5732-1.0371q.3267-.5727.7608-1.3437l2.1142-3.7534a3.0579,3.0579,0,0,1,.8985-1.0176,2.282,2.282,0,0,1,1.3535-.3853,2.339,2.339,0,0,1,1.3926.4444,2.4912,2.4912,0,0,1,.8994,1.373l3.3388,11.6172h-4.07l-1.2441-4.6035q-.3163-1.1257-.5332-1.9756t-.376-1.66q-.3354.6923-.751,1.5313t-1.0859,2.1245l-1.7783,3.3184a3.5459,3.5459,0,0,1-.5235.78,2.33,2.33,0,0,1-.5439.4453,1.7432,1.7432,0,0,1-.5928.2071,4.8244,4.8244,0,0,1-1.3828,0,1.744,1.744,0,0,1-.5928-.2071,2.328,2.328,0,0,1-.5429-.4453,3.5112,3.5112,0,0,1-.5235-.78l-1.7783-3.3389q-.356-.6709-.6318-1.2051t-.5039-.958q-.2271-.4248-.3955-.7808t-.3262-.6914q-.1582.79-.375,1.65t-.5137,1.9854l-1.2451,4.6035h-4.0107l3.4179-11.6172a2.4672,2.4672,0,0,1,.9092-1.373,2.3831,2.3831,0,0,1,1.4023-.4444,2.2879,2.2879,0,0,1,1.334.3755,2.9154,2.9154,0,0,1,.8994,1.0274Z" transform="translate(-17.6914 -117.29)"/></svg>