<svg id="Capa_1" data-name="Capa 1" xmlns="http://www.w3.org/2000/svg" viewBox="0 0 238.9908 31.3391"><defs><style>.cls-1{fill:#fff;stroke:#fff;stroke-width:0.3712px;}</style></defs><path class="cls-1" d="M45.8531,110.0084l-6.0059,7.7978H29.1359v22.1854H19.8586V117.8062H5.786l6.0059-7.7978Z" transform="translate(-5.4088 -109.3304)"/><path class="cls-1" d="M82.5588,132.2829l-5.9605,7.7087H61.54a21.5969,21.5969,0,0,1-7.2157-1.166,17.7934,17.7934,0,0,1-5.7144-3.2042,14.8212,14.8212,0,0,1-3.7645-4.839,13.6551,13.6551,0,0,1-1.3668-6.0739,13.0887,13.0887,0,0,1,1.3668-5.9832,14.1862,14.1862,0,0,1,3.7645-4.6609,17.2068,17.2068,0,0,1,5.7144-3.0025,23.7162,23.7162,0,0,1,7.2157-1.0535H82.5588l-5.9605,7.7978H61.54a10.9606,10.9606,0,0,0-3.4957.5393,8.54,8.54,0,0,0-2.7791,1.5005,7.0583,7.0583,0,0,0-1.8373,2.3086,6.5967,6.5967,0,0,0,1.8147,8.1557,8.7,8.7,0,0,0,2.8017,1.4567,11.399,11.399,0,0,0,3.4957.5159Z" transform="translate(-5.4088 -109.3304)"/><path class="cls-1" d="M118.2783,132.2829l-6.0059,7.7087H85.7857V110.0084h9.2772v22.2745Z" transform="translate(-5.4088 -109.3304)"/><path class="cls-1" d="M156.193,132.2829l-5.9613,7.7087H121.37V110.0084H156.104l-6.0068,7.7978H130.6925v3.5856h23.7531l-5.333,6.8132h-18.42v4.0779Z" transform="translate(-5.4088 -109.3304)"/><path class="cls-1" d="M170.5353,139.9916l5.6018-7.7087h10.3316q1.4541,0,2.532.089-.6274-.8065-1.4567-2.0381t-1.5912-2.3086l-5.3783-7.9322-14.0717,19.8986H155.5209l19.2266-27.1151a10.45,10.45,0,0,1,2.3758-2.33,6.9131,6.9131,0,0,1,7.1493-.0672,9.1913,9.1913,0,0,1,2.3977,2.3977l18.7326,27.1151Z" transform="translate(-5.4088 -109.3304)"/><path class="cls-1" d="M239.1045,140.4839a4.8321,4.8321,0,0,1-3.72-1.613L217.01,122.378v17.6136h-8.4263V115.1179a6.9158,6.9158,0,0,1,.4268-2.5539,4.8987,4.8987,0,0,1,1.1207-1.7491,4.2665,4.2665,0,0,1,1.613-.9846,5.8228,5.8228,0,0,1,1.9053-.3142,5.47,5.47,0,0,1,1.7256.2906,5.9573,5.9573,0,0,1,1.9944,1.3224l18.3748,16.4929V110.0084h8.47v24.83a6.9328,6.9328,0,0,1-.4251,2.554,5.1621,5.1621,0,0,1-1.1207,1.7709,4.148,4.148,0,0,1-1.6365,1.0081A6.0746,6.0746,0,0,1,239.1045,140.4839Z" transform="translate(-5.4088 -109.3304)"/></svg>