<svg id="Capa_2" data-name="Capa 2" xmlns="http://www.w3.org/2000/svg" viewBox="0 0 130.678 123.725"><defs><style>.cls-1{fill:#fff;}</style></defs><path class="cls-1" d="M62.5,55.328h-39V22.389l39-5.132Zm-38-1h37V18.4l-37,4.868Z" transform="translate(-9.389 -9.748)"/><path class="cls-1" d="M120,55.828H65V17.9l55-8.148Zm-54-1h53V10.907L66,18.759Z" transform="translate(-9.389 -9.748)"/><path class="cls-1" d="M63,93.9,24,88.767V57.828H63ZM25,87.89l37,4.868V58.828H25Z" transform="translate(-9.389 -9.748)"/><path class="cls-1" d="M120,101.907,65,93.76V57.828h55ZM66,92.9l53,7.853V58.828H66Z" transform="translate(-9.389 -9.748)"/><path class="cls-1" d="M13.825,133.188,9.389,115.705h2.386l2.076,8.846c.519,2.178.985,4.357,1.3,6.043H15.2c.285-1.739.83-3.813,1.426-6.071l2.335-8.818h2.36l2.128,8.871c.492,2.074.959,4.151,1.219,5.992h.052c.363-1.92.856-3.865,1.4-6.045l2.309-8.818h2.309l-4.955,17.483h-2.36l-2.2-9.1a52.782,52.782,0,0,1-1.142-5.707h-.052a54.724,54.724,0,0,1-1.348,5.707l-2.49,9.1Z" transform="translate(-9.389 -9.748)"/><path class="cls-1" d="M34.965,117.105a1.414,1.414,0,0,1-2.827,0,1.391,1.391,0,0,1,1.426-1.427A1.355,1.355,0,0,1,34.965,117.105Zm-2.542,16.083V120.633h2.283v12.555Z" transform="translate(-9.389 -9.748)"/><path class="cls-1" d="M38.492,124.031c0-1.3-.026-2.361-.1-3.4h2.023l.13,2.076h.051a4.618,4.618,0,0,1,4.151-2.361c1.738,0,4.436,1.037,4.436,5.343v7.5H46.9v-7.237c0-2.023-.752-3.709-2.905-3.709a3.348,3.348,0,0,0-3.217,3.4v7.549H38.492Z" transform="translate(-9.389 -9.748)"/><path class="cls-1" d="M63.731,114.771v15.174c0,1.116.026,2.387.1,3.243H61.786l-.1-2.178H61.63a4.644,4.644,0,0,1-4.28,2.463c-3.035,0-5.37-2.567-5.37-6.381-.025-4.176,2.568-6.744,5.629-6.744a4.2,4.2,0,0,1,3.787,1.92h.052v-7.5Zm-2.283,10.973a4.07,4.07,0,0,0-.1-.961,3.358,3.358,0,0,0-3.3-2.646c-2.36,0-3.761,2.076-3.761,4.851,0,2.543,1.245,4.643,3.71,4.643a3.432,3.432,0,0,0,3.346-2.723,4.012,4.012,0,0,0,.1-.986Z" transform="translate(-9.389 -9.748)"/><path class="cls-1" d="M78.879,126.807c0,4.642-3.217,6.666-6.252,6.666-3.4,0-6.018-2.491-6.018-6.459,0-4.2,2.75-6.666,6.226-6.666C76.44,120.348,78.879,122.967,78.879,126.807Zm-9.961.129c0,2.75,1.582,4.826,3.813,4.826,2.179,0,3.814-2.049,3.814-4.877,0-2.127-1.065-4.824-3.762-4.824S68.918,124.551,68.918,126.936Z" transform="translate(-9.389 -9.748)"/><path class="cls-1" d="M82.484,120.633l1.661,6.381c.363,1.4.7,2.7.933,4h.078c.285-1.272.7-2.621,1.115-3.969l2.049-6.408h1.92l1.946,6.277c.466,1.506.83,2.828,1.115,4.1h.078a37.69,37.69,0,0,1,.96-4.074l1.79-6.3h2.257l-4.047,12.555H92.264l-1.92-5.993a41.641,41.641,0,0,1-1.115-4.123h-.052a37.192,37.192,0,0,1-1.142,4.151l-2.023,5.965H83.937l-3.788-12.555Z" transform="translate(-9.389 -9.748)"/><path class="cls-1" d="M100.2,130.854a5.986,5.986,0,0,0,3.01.908c1.66,0,2.437-.83,2.437-1.867,0-1.09-.648-1.688-2.334-2.309-2.256-.8-3.32-2.051-3.32-3.555,0-2.023,1.634-3.683,4.332-3.683a6.281,6.281,0,0,1,3.087.777l-.571,1.66a4.9,4.9,0,0,0-2.568-.724c-1.349,0-2.1.777-2.1,1.71,0,1.038.752,1.5,2.387,2.127,2.178.831,3.294,1.92,3.294,3.788,0,2.2-1.712,3.761-4.7,3.761a7.179,7.179,0,0,1-3.527-.855Z" transform="translate(-9.389 -9.748)"/><path class="cls-1" d="M120.51,118.455h-.052l-2.932,1.582-.44-1.738,3.683-1.973h1.946v16.862h-2.2Z" transform="translate(-9.389 -9.748)"/><path class="cls-1" d="M140.067,124.576c0,5.733-2.127,8.9-5.862,8.9-3.294,0-5.525-3.086-5.577-8.664,0-5.655,2.438-8.768,5.862-8.768C138.044,116.041,140.067,119.207,140.067,124.576Zm-9.156.26c0,4.383,1.349,6.873,3.424,6.873,2.335,0,3.45-2.723,3.45-7.029,0-4.151-1.063-6.875-3.424-6.875C132.363,117.805,130.911,120.244,130.911,124.836Z" transform="translate(-9.389 -9.748)"/></svg>