<svg id="Capa_1" data-name="Capa 1" xmlns="http://www.w3.org/2000/svg" viewBox="0 0 127.592 124.379"><defs><style>.cls-1{fill:#fff;}</style></defs><path class="cls-1" d="M64.312,58.39h-39V25.452l39-5.132Zm-38-1h37V21.46l-37,4.869Z" transform="translate(-11.204 -12.811)"/><path class="cls-1" d="M121.812,58.89h-55V20.959l55-8.148Zm-54-1h53V13.97l-53,7.851Z" transform="translate(-11.204 -12.811)"/><path class="cls-1" d="M64.812,96.961l-39-5.132V60.89h39Zm-38-6.009,37,4.868V61.89h-37Z" transform="translate(-11.204 -12.811)"/><path class="cls-1" d="M121.812,104.97l-55-8.148V60.89h55Zm-54-9.011,53,7.853V61.89h-53Z" transform="translate(-11.204 -12.811)"/><path class="cls-1" d="M15.674,136.9,11.2,119.285h2.4L15.7,128.2c.523,2.2.993,4.391,1.307,6.09h.052c.288-1.751.837-3.842,1.438-6.116l2.352-8.887h2.379l2.143,8.939c.5,2.091.967,4.182,1.229,6.038h.052c.366-1.934.862-3.9,1.411-6.09l2.327-8.887h2.326L27.724,136.9H25.345l-2.222-9.174a53.042,53.042,0,0,1-1.15-5.751h-.052a55.317,55.317,0,0,1-1.359,5.751l-2.51,9.174Z" transform="translate(-11.204 -12.811)"/><path class="cls-1" d="M36.974,120.7a1.425,1.425,0,0,1-2.849,0,1.4,1.4,0,0,1,1.438-1.438A1.366,1.366,0,0,1,36.974,120.7ZM34.413,136.9V124.251h2.3V136.9Z" transform="translate(-11.204 -12.811)"/><path class="cls-1" d="M40.528,127.675c0-1.307-.027-2.379-.1-3.424h2.039l.131,2.091h.052a4.653,4.653,0,0,1,4.182-2.379c1.751,0,4.47,1.046,4.47,5.385V136.9H49v-7.293c0-2.039-.758-3.737-2.928-3.737a3.373,3.373,0,0,0-3.241,3.423V136.9h-2.3Z" transform="translate(-11.204 -12.811)"/><path class="cls-1" d="M65.958,118.344v15.291c0,1.123.026,2.4.105,3.267H64l-.1-2.2h-.053a4.679,4.679,0,0,1-4.313,2.483c-3.058,0-5.41-2.587-5.41-6.43-.026-4.208,2.588-6.8,5.672-6.8a4.23,4.23,0,0,1,3.816,1.934h.052v-7.553Zm-2.3,11.056a4.086,4.086,0,0,0-.1-.967,3.383,3.383,0,0,0-3.32-2.666c-2.379,0-3.79,2.091-3.79,4.888,0,2.561,1.255,4.678,3.738,4.678a3.458,3.458,0,0,0,3.372-2.744,4.015,4.015,0,0,0,.1-.993Z" transform="translate(-11.204 -12.811)"/><path class="cls-1" d="M81.221,130.472c0,4.678-3.241,6.717-6.3,6.717-3.424,0-6.064-2.509-6.064-6.508,0-4.235,2.77-6.718,6.273-6.718C78.765,123.963,81.221,126.6,81.221,130.472Zm-10.037.131c0,2.77,1.595,4.861,3.843,4.861,2.195,0,3.842-2.065,3.842-4.914,0-2.143-1.072-4.862-3.79-4.862S71.184,128.2,71.184,130.6Z" transform="translate(-11.204 -12.811)"/><path class="cls-1" d="M84.853,124.251l1.672,6.43c.367,1.411.706,2.718.941,4.025h.079c.288-1.281.7-2.64,1.124-4l2.065-6.456h1.934l1.96,6.325c.471,1.516.837,2.849,1.124,4.13h.079a37.993,37.993,0,0,1,.967-4.1l1.8-6.352h2.273L96.8,136.9H94.707l-1.935-6.038a42.031,42.031,0,0,1-1.123-4.156H91.6a37.142,37.142,0,0,1-1.15,4.182L88.408,136.9H86.316L82.5,124.251Z" transform="translate(-11.204 -12.811)"/><path class="cls-1" d="M102.7,134.549a6.02,6.02,0,0,0,3.032.915c1.673,0,2.457-.836,2.457-1.881,0-1.1-.653-1.7-2.353-2.327-2.274-.81-3.345-2.065-3.345-3.581,0-2.039,1.647-3.712,4.365-3.712a6.3,6.3,0,0,1,3.11.785l-.575,1.672a4.929,4.929,0,0,0-2.587-.732c-1.36,0-2.118.785-2.118,1.726,0,1.045.758,1.516,2.405,2.143,2.2.837,3.32,1.934,3.32,3.816,0,2.222-1.726,3.79-4.731,3.79a7.223,7.223,0,0,1-3.555-.862Z" transform="translate(-11.204 -12.811)"/><path class="cls-1" d="M123.167,122.055h-.052l-2.954,1.595-.444-1.752,3.712-1.986h1.96V136.9h-2.222Z" transform="translate(-11.204 -12.811)"/><path class="cls-1" d="M136.574,122.055h-.053l-2.953,1.595-.444-1.752,3.711-1.986H138.8V136.9h-2.222Z" transform="translate(-11.204 -12.811)"/></svg>