<svg id="Capa_1" data-name="Capa 1" xmlns="http://www.w3.org/2000/svg" viewBox="0 0 350 28.473"><defs><style>.cls-1{fill:#fff;}</style></defs><path class="cls-1" d="M66.337,186.386a9.487,9.487,0,0,1-.907,4.182,8.711,8.711,0,0,1-2.658,3.193,13.259,13.259,0,0,1-4.264,2.061,20.278,20.278,0,0,1-5.728.741H38.358v7.046H29.87V189.517H53.6a4.83,4.83,0,0,0,3.07-.865,2.8,2.8,0,0,0,1.092-2.308,2.74,2.74,0,0,0-1.092-2.287,4.923,4.923,0,0,0-3.07-.844H29.87l5.645-7.17H52.821a19.749,19.749,0,0,1,5.728.762,12.846,12.846,0,0,1,4.244,2.122,9.1,9.1,0,0,1,2.637,3.256A9.617,9.617,0,0,1,66.337,186.386Z" transform="translate(-29.87 -175.589)"/><path class="cls-1" d="M109.767,203.609H98.353l-6.139-7.293H79.11v7.293H70.58V189.517H94.562a6.326,6.326,0,0,0,3.338-.824,2.537,2.537,0,0,0,1.36-2.266,2.686,2.686,0,0,0-1.236-2.411,6.329,6.329,0,0,0-3.462-.8H70.58l5.563-7.17H93.862a28.607,28.607,0,0,1,4.862.433,14.85,14.85,0,0,1,4.574,1.545,9.808,9.808,0,0,1,3.4,3.008,8.23,8.23,0,0,1,1.339,4.862,9.325,9.325,0,0,1-.494,3.049,8.383,8.383,0,0,1-3.688,4.554,9.32,9.32,0,0,1-3.029,1.133,19.556,19.556,0,0,1,1.566,1.359q.865.825,2.308,2.267Z" transform="translate(-29.87 -175.589)"/><path class="cls-1" d="M131.112,175.589q10.053,0,15.1,3.421t5.048,10.8q0,7.416-5.027,10.837t-15.122,3.42q-10.137,0-15.143-3.42t-5.007-10.837q0-7.376,5.027-10.8T131.112,175.589Zm0,21.3a46.478,46.478,0,0,0,5.439-.268,9.634,9.634,0,0,0,3.605-1.051,4.6,4.6,0,0,0,2-2.163,10.827,10.827,0,0,0,0-7.211,4.509,4.509,0,0,0-2-2.143,9.977,9.977,0,0,0-3.605-1.03,55.326,55.326,0,0,0-10.878,0,9.977,9.977,0,0,0-3.606,1.03,4.512,4.512,0,0,0-2,2.143,10.827,10.827,0,0,0,0,7.211,4.6,4.6,0,0,0,2,2.163,9.633,9.633,0,0,0,3.606,1.051A46.454,46.454,0,0,0,131.112,196.893Z" transform="translate(-29.87 -175.589)"/><path class="cls-1" d="M191.437,176.043,175.078,194.5v9.106h-8.571v-9.147L149.7,176.043h10.96l6.593,7.664q.33.372.866.969t1.112,1.256q.576.66,1.071,1.236t.7.866q.411-.577,1.195-1.566t2.266-2.8l6.263-7.623Z" transform="translate(-29.87 -175.589)"/><path class="cls-1" d="M226.338,196.522l-5.481,7.087H194.321V176.043h31.934l-5.521,7.17H202.892v3.3h21.839l-4.9,6.263H202.892v3.75Z" transform="translate(-29.87 -175.589)"/><path class="cls-1" d="M264.329,196.522l-5.48,7.087H245a19.869,19.869,0,0,1-6.635-1.071,16.391,16.391,0,0,1-5.253-2.946,13.619,13.619,0,0,1-3.461-4.45,12.545,12.545,0,0,1-1.257-5.584,12.034,12.034,0,0,1,1.257-5.5,13.026,13.026,0,0,1,3.461-4.285,15.812,15.812,0,0,1,5.253-2.761,21.838,21.838,0,0,1,6.635-.968h19.325l-5.48,7.17H245a10.1,10.1,0,0,0-3.215.494,7.885,7.885,0,0,0-2.554,1.38,6.511,6.511,0,0,0-1.69,2.122,6.069,6.069,0,0,0,1.669,7.5,8.027,8.027,0,0,0,2.575,1.339,10.511,10.511,0,0,0,3.215.474Z" transform="translate(-29.87 -175.589)"/><path class="cls-1" d="M301.537,176.043l-5.521,7.17h-9.849v20.4h-8.529v-20.4H264.7l5.522-7.17Z" transform="translate(-29.87 -175.589)"/><path class="cls-1" d="M319.5,175.589q10.055,0,15.1,3.421t5.048,10.8q0,7.416-5.027,10.837t-15.123,3.42q-10.136,0-15.143-3.42t-5.006-10.837q0-7.376,5.027-10.8T319.5,175.589Zm0,21.3a46.454,46.454,0,0,0,5.439-.268,9.639,9.639,0,0,0,3.606-1.051,4.611,4.611,0,0,0,2-2.163,10.827,10.827,0,0,0,0-7.211,4.518,4.518,0,0,0-2-2.143,9.983,9.983,0,0,0-3.606-1.03,55.326,55.326,0,0,0-10.878,0,9.977,9.977,0,0,0-3.605,1.03,4.509,4.509,0,0,0-2,2.143,10.827,10.827,0,0,0,0,7.211,4.6,4.6,0,0,0,2,2.163,9.634,9.634,0,0,0,3.605,1.051A46.478,46.478,0,0,0,319.5,196.893Z" transform="translate(-29.87 -175.589)"/><path class="cls-1" d="M369.527,187.045q5.069,0,7.706,1.875a6.493,6.493,0,0,1,2.637,5.665,10.365,10.365,0,0,1-.66,3.791,6.7,6.7,0,0,1-2.1,2.843,10.135,10.135,0,0,1-3.688,1.772,20.424,20.424,0,0,1-5.377.618H342.372l5.481-7.087H368.7a4.061,4.061,0,0,0,2.225-.474,1.727,1.727,0,0,0,.7-1.545,1.678,1.678,0,0,0-.7-1.525,4.225,4.225,0,0,0-2.225-.453h-15a16.261,16.261,0,0,1-4.615-.577,9.263,9.263,0,0,1-3.214-1.607,6.317,6.317,0,0,1-1.9-2.493,8.224,8.224,0,0,1-.618-3.234,8.869,8.869,0,0,1,.68-3.524,6.793,6.793,0,0,1,2.1-2.7,10.327,10.327,0,0,1,3.667-1.731,20.461,20.461,0,0,1,5.377-.618h23.941l-5.481,7.17H354.528a4.573,4.573,0,0,0-2.2.412,1.56,1.56,0,0,0-.721,1.483,1.607,1.607,0,0,0,.721,1.5,4.395,4.395,0,0,0,2.2.433Z" transform="translate(-29.87 -175.589)"/></svg>